<svg width="34" height="34" viewBox="0 0 34 34" fill="none" xmlns="http://www.w3.org/2000/svg">
<path d="M31.1663 7.29587V11.1209C31.1663 14.3084 29.8913 15.5834 26.7038 15.5834H22.8788C19.6913 15.5834 18.4163 14.3084 18.4163 11.1209V7.29587C18.4163 4.10837 19.6913 2.83337 22.8788 2.83337H26.7038C29.8913 2.83337 31.1663 4.10837 31.1663 7.29587ZM15.583 22.8792V26.7042C15.583 29.8917 14.308 31.1667 11.1205 31.1667H7.29551C4.10801 31.1667 2.83301 29.8917 2.83301 26.7042V22.8792C2.83301 19.6917 4.10801 18.4167 7.29551 18.4167H11.1205C14.308 18.4167 15.583 19.6917 15.583 22.8792Z" stroke="#315C66" stroke-width="2.4" stroke-linecap="round" stroke-linejoin="round"/>
<path d="M24.6213 15.5833V19.295C24.6213 23.1058 23.1054 24.6216 19.2946 24.6216H15.5829V22.8791C15.5829 19.6916 14.3079 18.4166 11.1204 18.4166H9.37793V14.705C9.37793 10.8941 10.8938 9.3783 14.7046 9.3783H18.4163V11.1208C18.4163 14.3083 19.6913 15.5833 22.8788 15.5833H24.6213Z" stroke="#315C66" stroke-width="2.4" stroke-linecap="round" stroke-linejoin="round"/>
</svg>
