<svg width="240" height="240" viewBox="0 0 240 240" fill="none" xmlns="http://www.w3.org/2000/svg">
<path d="M186.7 186.7L208.9 175.6V147.8M142.2 97.8L120 108.9M120 108.9L97.7996 97.8M120 108.9V136.7M208.9 64.4L186.7 75.5M208.9 64.4L186.7 53.3M208.9 64.4V92.2M31.0996 64.4L53.2996 53.3M31.0996 64.4L53.2996 75.5M31.0996 64.4V92.2M120 220L97.7996 208.9M120 220L142.2 208.9M120 220V192.2M142.2 31.1L120 20L97.7996 31.1H142.2ZM53.2996 186.7L31.0996 175.6V147.8L53.2996 186.7Z" stroke="#315C66" stroke-width="16" stroke-linecap="round" stroke-linejoin="round"/>
</svg>
