<svg width="260" height="260" viewBox="0 0 260 260" fill="none" xmlns="http://www.w3.org/2000/svg">
<path d="M202.258 202.258L226.308 190.233V160.117M154.05 105.95L130 117.975M130 117.975L105.95 105.95M130 117.975V148.092M226.308 69.7667L202.258 81.7917M226.308 69.7667L202.258 57.7417M226.308 69.7667V99.8834M33.6914 69.7667L57.7414 57.7417M33.6914 69.7667L57.7414 81.7917M33.6914 69.7667V99.8834M130 238.333L105.95 226.308M130 238.333L154.05 226.308M130 238.333V208.217M154.05 33.6917L130 21.6667L105.95 33.6917H154.05ZM57.7414 202.258L33.6914 190.233V160.117L57.7414 202.258Z" stroke="#315C66" stroke-width="16" stroke-linecap="round" stroke-linejoin="round"/>
</svg>
