<svg width="34" height="40" viewBox="0 0 34 40" fill="none" xmlns="http://www.w3.org/2000/svg">
<path d="M33.9598 34.3698C33.9598 34.3698 33.9434 34.3856 33.9325 34.3944C30.331 37.498 25.58 39.3833 20.3755 39.3833C9.12116 39.3833 0 30.5656 0 19.6899C0 8.81425 9.12116 0 20.3737 0C24.2575 0 27.9009 1.03159 30.9777 2.87295C30.9941 2.88351 31.0287 2.90287 31.0451 2.91344C33.9926 4.71079 34.8615 8.48329 32.9961 11.3281C31.7938 13.1589 29.7499 14.1588 27.6622 14.1588C26.5073 14.1588 25.3359 13.8507 24.2885 13.2099C22.7364 12.2452 20.8874 11.6819 18.9036 11.6819C13.4058 11.6819 8.94628 15.9913 8.94628 21.3077C8.94628 22.6333 9.21953 23.899 9.72596 25.0468C9.7296 25.0573 9.74053 25.0802 9.74235 25.0872C12.3893 31.3489 18.6285 35.8538 26.0482 35.8538C28.8062 35.8538 31.4204 35.2376 33.7394 34.1374C33.7539 34.1268 33.7667 34.118 33.7849 34.1163C33.8523 34.0951 33.9252 34.1163 33.9689 34.1743C34.0144 34.2342 34.009 34.3169 33.9598 34.3715V34.3698Z" fill="#363638"/>
</svg>
