<svg width="48" height="56" viewBox="0 0 48 56" fill="none" xmlns="http://www.w3.org/2000/svg">
<path d="M47.9431 48.2994C47.9431 48.2994 47.92 48.3217 47.9045 48.3341C42.8201 52.6955 36.1129 55.345 28.7654 55.345C12.8769 55.345 0 42.9535 0 27.67C0 12.3866 12.8769 0 28.7628 0C34.2458 0 39.3894 1.44968 43.7331 4.03732C43.7563 4.05217 43.8051 4.07938 43.8283 4.09422C47.9894 6.62002 49.2162 11.9215 46.5827 15.9192C44.8853 18.492 41.9997 19.8972 39.0525 19.8972C37.422 19.8972 35.7683 19.4643 34.2895 18.5638C32.0984 17.2081 29.488 16.4165 26.6874 16.4165C18.9257 16.4165 12.63 22.4725 12.63 29.9435C12.63 31.8063 13.0158 33.585 13.7307 35.1979C13.7359 35.2128 13.7513 35.2449 13.7539 35.2548C17.4907 44.0543 26.299 50.3849 36.7739 50.3849C40.6676 50.3849 44.3581 49.5191 47.6319 47.9729C47.6525 47.9581 47.6705 47.9457 47.6962 47.9432C47.7914 47.9135 47.8943 47.9432 47.956 48.0248C48.0203 48.109 48.0126 48.2252 47.9431 48.3019V48.2994Z" fill="#FAFAFA"/>
</svg>
