<svg width="34" height="34" viewBox="0 0 34 34" fill="none" xmlns="http://www.w3.org/2000/svg">
<path d="M22.0857 17.3684C24.0131 17.3684 25.8616 16.6027 27.2246 15.2398C28.5875 13.8769 29.3531 12.0283 29.3531 10.1009C29.3531 8.17341 28.5875 6.3249 27.2246 4.96198C25.8616 3.59905 24.0131 2.83337 22.0857 2.83337C20.1582 2.83337 18.3097 3.59905 16.9468 4.96198C15.5838 6.3249 14.8182 8.17341 14.8182 10.1009C14.8182 12.0283 15.5838 13.8769 16.9468 15.2398C18.3097 16.6027 20.1582 17.3684 22.0857 17.3684ZM9.00982 27.54C10.167 27.54 11.2769 27.0803 12.0952 26.2621C12.9134 25.4438 13.3732 24.3339 13.3732 23.1767C13.3732 22.0195 12.9134 20.9096 12.0952 20.0914C11.2769 19.2731 10.167 18.8134 9.00982 18.8134C7.85259 18.8134 6.74276 19.2731 5.92448 20.0914C5.10619 20.9096 4.64648 22.0195 4.64648 23.1767C4.64648 24.3339 5.10619 25.4438 5.92448 26.2621C6.74276 27.0803 7.85259 27.54 9.00982 27.54ZM23.5448 31.1667C24.0211 31.1667 24.4927 31.0729 24.9327 30.8906C25.3727 30.7084 25.7725 30.4412 26.1093 30.1045C26.446 29.7677 26.7132 29.3679 26.8954 28.9279C27.0777 28.4879 27.1715 28.0163 27.1715 27.54C27.1715 27.0638 27.0777 26.5922 26.8954 26.1522C26.7132 25.7122 26.446 25.3124 26.1093 24.9756C25.7725 24.6388 25.3727 24.3717 24.9327 24.1894C24.4927 24.0072 24.0211 23.9134 23.5448 23.9134C22.583 23.9134 21.6605 24.2955 20.9804 24.9756C20.3002 25.6557 19.9182 26.5782 19.9182 27.54C19.9182 28.5019 20.3002 29.4243 20.9804 30.1045C21.6605 30.7846 22.583 31.1667 23.5448 31.1667Z" stroke="#315C66" stroke-width="2.4" stroke-miterlimit="10"/>
</svg>
