<svg width="22" height="20" viewBox="0 0 22 20" fill="none" xmlns="http://www.w3.org/2000/svg">
<path d="M1.00098 0.833252H2.74211C3.82282 0.833252 4.67338 1.68575 4.58332 2.66659L3.75278 11.7966C3.72035 12.1503 3.76847 12.5063 3.8941 12.8421C4.01973 13.1779 4.22013 13.4861 4.48259 13.7472C4.74505 14.0083 5.06386 14.2166 5.41882 14.359C5.77377 14.5013 6.15713 14.5746 6.5446 14.5741H17.2016C18.6425 14.5741 19.9033 13.4924 20.0134 12.1816L20.5538 5.30659C20.6738 3.78492 19.413 2.54742 17.7419 2.54742H4.82347M8.00555 6.33325H20.0134M15.2603 19.1666C15.592 19.1666 15.9102 19.0459 16.1448 18.831C16.3793 18.6161 16.5111 18.3246 16.5111 18.0208C16.5111 17.7169 16.3793 17.4254 16.1448 17.2105C15.9102 16.9956 15.592 16.8749 15.2603 16.8749C14.9286 16.8749 14.6104 16.9956 14.3758 17.2105C14.1413 17.4254 14.0095 17.7169 14.0095 18.0208C14.0095 18.3246 14.1413 18.6161 14.3758 18.831C14.6104 19.0459 14.9286 19.1666 15.2603 19.1666ZM7.25506 19.1666C7.5868 19.1666 7.90495 19.0459 8.13953 18.831C8.3741 18.6161 8.50588 18.3246 8.50588 18.0208C8.50588 17.7169 8.3741 17.4254 8.13953 17.2105C7.90495 16.9956 7.5868 16.8749 7.25506 16.8749C6.92333 16.8749 6.60518 16.9956 6.3706 17.2105C6.13603 17.4254 6.00425 17.7169 6.00425 18.0208C6.00425 18.3246 6.13603 18.6161 6.3706 18.831C6.60518 19.0459 6.92333 19.1666 7.25506 19.1666Z" stroke="#363638" stroke-width="1.5" stroke-miterlimit="10" stroke-linecap="round" stroke-linejoin="round"/>
</svg>
