<svg width="240" height="240" viewBox="0 0 240 240" fill="none" xmlns="http://www.w3.org/2000/svg">
<path d="M40.2001 59.7C27.0624 77.0547 19.9677 98.2334 20.0001 120C20.0001 175.2 64.8001 220 120 220C175.2 220 220 175.2 220 120C220 64.8 175.2 20 120 20" stroke="#315C66" stroke-width="16" stroke-linecap="round" stroke-linejoin="round"/>
<path d="M50 120C50 158.7 81.3 190 120 190C158.7 190 190 158.7 190 120C190 81.3 158.7 50 120 50" stroke="#315C66" stroke-width="16" stroke-linecap="round" stroke-linejoin="round"/>
<path d="M120 160C142.1 160 160 142.1 160 120C160 97.9 142.1 80 120 80" stroke="#315C66" stroke-width="16" stroke-linecap="round" stroke-linejoin="round"/>
</svg>
