<svg width="34" height="34" viewBox="0 0 34 34" fill="none" xmlns="http://www.w3.org/2000/svg">
<path d="M19.833 22.6666C19.833 25.1741 18.7422 27.4408 16.9997 28.9849C15.4489 30.3933 13.4278 31.1713 11.333 31.1666C6.64384 31.1666 2.83301 27.3558 2.83301 22.6666C2.83301 18.7566 5.49634 15.4416 9.09467 14.4641C9.58236 15.6903 10.348 16.7866 11.3313 17.6667C12.3146 18.5467 13.4888 19.1865 14.7613 19.5358C15.4697 19.7341 16.2205 19.8333 16.9997 19.8333C17.7788 19.8333 18.5297 19.7341 19.238 19.5358C19.6205 20.4991 19.833 21.5616 19.833 22.6666Z" stroke="#315C66" stroke-width="2.5" stroke-linecap="round" stroke-linejoin="round"/>
<path d="M25.5 11.3334C25.5022 13.1986 24.8902 15.0126 23.7584 16.4951C22.6266 17.9777 21.0381 19.0463 19.2383 19.5359C18.53 19.7342 17.7792 19.8334 17 19.8334C16.2208 19.8334 15.47 19.7342 14.7617 19.5359C12.9619 19.0463 11.3734 17.9777 10.2416 16.4951C9.10985 15.0126 8.49779 13.1986 8.50001 11.3334C8.50001 6.64421 12.3108 2.83337 17 2.83337C21.6892 2.83337 25.5 6.64421 25.5 11.3334Z" stroke="#315C66" stroke-width="2.5" stroke-linecap="round" stroke-linejoin="round"/>
<path d="M31.1667 22.6666C31.1667 27.3558 27.3558 31.1666 22.6667 31.1666C20.5718 31.1713 18.5508 30.3933 17 28.9849C18.7425 27.4408 19.8333 25.1741 19.8333 22.6666C19.8333 21.5616 19.6208 20.4991 19.2383 19.5358C21.8308 18.8274 23.9275 16.9291 24.905 14.4641C28.5033 15.4416 31.1667 18.7566 31.1667 22.6666Z" stroke="#315C66" stroke-width="2.5" stroke-linecap="round" stroke-linejoin="round"/>
</svg>
