<svg width="23" height="22" viewBox="0 0 23 22" fill="none" xmlns="http://www.w3.org/2000/svg">
<path d="M19.6677 0.173096H3.34952C1.94208 0.173096 0.799805 1.31537 0.799805 2.72282V19.041C0.799805 20.4485 1.94208 21.5907 3.34952 21.5907H19.6677C21.0752 21.5907 22.2174 20.4485 22.2174 19.041V2.72282C22.2174 1.31537 21.0752 0.173096 19.6677 0.173096ZM17.628 7.82225H16.6081C15.5168 7.82225 15.0782 8.07723 15.0782 8.84214V10.372H17.628L17.118 12.9217H15.0782V20.5709H12.5285V12.9217H10.4887V10.372H12.5285V8.84214C12.5285 6.80237 13.5484 5.27253 15.5882 5.27253C17.067 5.27253 17.628 5.78248 17.628 5.78248V7.82225Z" fill="#FAFAFA"/>
</svg>
