<svg width="240" height="240" viewBox="0 0 240 240" fill="none" xmlns="http://www.w3.org/2000/svg">
<path d="M183.2 120C209.2 120 220 110 210.4 77.2001C203.9 55.1001 184.9 36.1001 162.8 29.6001C130 20.0001 120 30.8001 120 56.8001V85.6001C120 110 130 120 150 120H183.2Z" stroke="#315C66" stroke-width="16" stroke-linecap="round" stroke-linejoin="round"/>
<path d="M200 147C195.339 170.141 181.86 190.561 162.414 203.942C142.967 217.323 119.079 222.616 95.8003 218.7C57.9003 212.6 27.4003 182.1 21.2003 144.2C17.3278 120.983 22.6022 97.1682 35.9157 77.7572C49.2293 58.3462 69.5463 44.8491 92.6003 40.1001" stroke="#315C66" stroke-width="16" stroke-linecap="round" stroke-linejoin="round"/>
</svg>
