<svg width="31" height="31" viewBox="0 0 31 31" fill="none" xmlns="http://www.w3.org/2000/svg">
<path d="M9.2582 0.193176C0.524353 0.193176 0.524353 4.11376 0.524353 8.93053V21.4095C0.524353 27.1493 2.72078 30.1445 9.26171 30.1445H21.7406C27.8799 30.1445 30.4757 27.948 30.4757 21.4071V8.92702C30.4757 1.99025 28.6786 0.193176 21.7383 0.193176H9.2582ZM24.4854 4.98538C25.1467 4.98538 25.6834 5.52211 25.6834 6.18344C25.6834 6.84476 25.1467 7.38149 24.4854 7.38149C23.8241 7.38149 23.2873 6.84476 23.2873 6.18344C23.2873 5.52211 23.8241 4.98538 24.4854 4.98538ZM15.5 7.38149C19.795 7.38149 23.2873 10.8738 23.2873 15.1688C23.2873 19.4638 19.7944 22.9562 15.5 22.9562C11.205 22.9562 7.71267 19.4632 7.71267 15.1688C7.71267 10.8744 11.205 7.38149 15.5 7.38149ZM15.5 9.77759C12.5222 9.77759 10.1088 12.1911 10.1088 15.1688C10.1088 18.1466 12.5222 20.5601 15.5 20.5601C18.4778 20.5601 20.8912 18.1466 20.8912 15.1688C20.8912 12.1911 18.4778 9.77759 15.5 9.77759Z" fill="#FAFAFA"/>
</svg>
