<?xml version="1.0" encoding="UTF-8"?>
<svg id="Layer_1" data-name="Layer 1" xmlns="http://www.w3.org/2000/svg" viewBox="0 0 810.75 612.61">
  <defs>
    <style>
      .cls-1 {
        fill: none;
        stroke: #fafbfb;
        stroke-miterlimit: 10;
        stroke-width: .5px;
      }
    </style>
  </defs>
  <path class="cls-1" d="m333.43,276.66c-.33-1.44,23.08,3.5,24.06,3.63,1.39.18,2.76.48,4.15.72,5.24.9,10.47,1.8,15.71,2.68,2.57.43,5.14.85,7.72,1.22,2.05.3,2.23.12,2.16-1.92-.17-5.6-.19-5.65,5.21-6.77,4.01-.83,8.04-1.55,12.09-2.19,1.04-.17,2.17.1,3.25.24.48.06.93.38,1.42.46,3.86.61,4.58,0,4.58-3.94,0-16.89-.03-33.77-.05-50.66,0-1.11.02-2.21.07-3.32.02-.39.15-.78.23-1.17.12.36.31.71.33,1.07.15,2.51.39,5.02.38,7.52-.06,14.77-.19,29.55-.29,44.32,0,.7-.01,1.41-.04,2.11-.03.91.19,1.6,1.3,1.58,1.03-.01,1.78-.34,1.81-1.52.01-.5-.05-1-.05-1.51-.02-16.79-.04-33.57-.06-50.36,0-.9,0-1.82.15-2.7.06-.31.56-.71.91-.78.58-.11,1.21-.03,1.19.88-.02.7.09,1.4.09,2.11.05,17.09.1,34.18.12,51.26,0,2.78-.5,3.21-3.38,3.35-.2.01-.41-.04-.6.01-.35.09-.68.23-1.02.34.4.15.82.44,1.21.42,1.2-.08,2.39-.23,3.57-.44,2.26-.41,2.47-.38,2.56,1.93.09,2.09-.06,4.21-.31,6.29-.11.93.09,1.34.93,1.46,2.18.31,4.37.57,6.55.88,2.28.32,4.55.73,6.84,1.01,3.27.39,6.55.64,9.81,1.04.98.12,1.9.62,2.88.79,3.65.61,7.32,1.13,10.97,1.71,5.14.82,10.27,1.72,15.42,2.46,5.25.76,10.51,1.45,15.78,2.03,1.36.15,2.81-.06,4.17-.35,4.5-.97,8.96-2.12,13.47-3.05,3.81-.79,7.66-1.37,11.48-2.07,1.47-.27,2.92-.69,4.4-.93.35-.06.78.34,1.18.52-.31.16-.65.49-.94.45-1.72-.2-3.09.47-4.43,1.45-.5.36-1.16,1.3-1.95.17-.11-.16-.78-.08-1.09.08-1.92,1.02-4.07,1.03-6.11,1.5-2.13.49-4.25,1.04-6.38,1.52-1.63.37-2.91,1.69-4.68,1.67-.12,0-.3.26-.33.42-.02.08.22.33.34.32,4.76-.25,9.13,2.18,13.9,2.01,1.27-.05,2.54.55,3.83.72,2.77.36,5.57.55,8.34.98,2.63.41,5.21,1.07,7.83,1.57,3.42.66,6.84,1.31,10.27,1.89,3.22.54,6.39.39,9.34-1.21.84-.46,1.52-1.21,2.68-.6.25.13,1.01-.7,1.54-1.09.37-.27.96-.84,1.09-.75,2.28,1.58,4.4,0,6.49-.41,5.68-1.13,11.31-2.53,16.98-3.75.83-.18,1.73.03,2.6.06-.75.23-1.5.49-2.26.68-4.08,1.01-8.15,2.02-12.24,3.01-3.4.83-6.8,1.63-10.2,2.45-2.33.57-4.66,1.15-6.99,1.76-.22.06-.39.29-.58.45.12.15.21.39.37.44.95.31,1.9.68,2.88.84,7.1,1.21,14.2,2.42,21.31,3.55,4.64.74,9.3,1.35,13.95,2.05,1.09.16,2.14.5,3.23.7,4.92.91,9.85,1.8,14.77,2.69,1.42.26,1.67.08,1.68-1.58.04-6.13.04-12.26.04-18.39,0-27.54,0-55.08,0-82.63,0-.5,0-1.01,0-1.51,0-1.12-.29-1.72-1.62-1.17-.71.29-1.57.23-2.37.29-.5.04-1,.03-1.51.05-10.24.3-20.48.61-30.73.89-2.01.05-4.02,0-6.03-.05-.59-.01-1.17-.18-1.76-.28.54-.1,1.07-.2,1.61-.29.1-.02.2,0,.3-.01,10.34-.38,20.68-.73,31.02-1.15,3.3-.14,6.6-.51,9.9-.73.93-.06,1.18-.52,1.18-1.35-.01-3.12-.02-6.23,0-9.35.01-1.28-.73-1.46-1.76-1.4-3.81.2-7.64.28-11.44.59-5.5.45-10.98,1.09-16.47,1.61-3.3.31-6.6.55-9.9.83-.2.02-.45-.05-.59.05-2.7,1.85-5.77.48-8.64.96-2.85.48-5.77.52-8.66.81-1.39.14-2.77.49-4.16.61-4.88.42-9.76.72-14.63,1.17-4.99.45-9.97,1.03-14.95,1.53-1.2.12-2.41.21-3.61.21-5.13.03-10.19.6-15.25,1.55-2.6.49-5.36.12-8.04.24-6.62.31-13.27.41-19.85,1.12-5.31.57-10.62.56-15.93.81-7.52.36-15.02.97-22.54,1.46-1.7.11-3.41.27-5.12.24-7.46-.16-14.84.66-22.21,1.63-2.08.28-4.21.18-6.32.26-.8.03-1.63-.05-2.4.13-.49.12-.89.63-1.33.97.48.21.95.56,1.45.6,4.8.4,9.61.71,14.4,1.13,1.8.16,3.58.51,5.36.81.21.04.37.33.55.5-.21.18-.44.51-.64.51-1.67-.07-3.33-.21-5-.3-.69-.04-1.52-.25-2.04.04-.79.44-.95-.1-1.48-.31-1.14-.46-2.53-.46-3.8-.39-.98.05-.72,1.02-.72,1.69-.03,5.13-.08,10.25-.07,15.38.02,12.67.09,25.33.1,38,0,1.29-.19,2.59-.3,3.88-.12-1.33-.34-2.66-.34-3.99-.02-17.59,0-35.18.02-52.77,0-1.82.51-2.28-2.24-2.44-3.8-.21-7.59-.59-11.39-.95-.54-.05-1.03-.52-1.58-.62-.98-.18-1.99-.24-2.99-.34,1.15-.25,2.29-.54,3.45-.74,1.58-.27,3.18-.46,4.76-.73.35-.06.67-.31,1-.47-.28-.24-.54-.51-.85-.71-.3-.19-.64-.3-.97-.44.3-.02.6-.06.9-.07,1.41-.04,2.81-.06,4.22-.1,1.02-.03,1.59-.57,1.18-1.53-.29-.7-.54-1.02.47-.97.68.03.72.1.47.76-.28.75-.19,1.41.74,1.59.49.09,1,.1,1.5.07,6.32-.29,12.64-.58,18.96-.93.9-.05,2.15.2,2.31-1.32,0-.07.5-.21.55-.15,1.03,1.32,2.4.71,3.65.63,3.31-.2,6.61-.4,9.91-.68,2.07-.18,2.1-.24,2.1-2.34.01-9.15,0-18.29,0-27.44,0-.8-.04-1.61.05-2.41.03-.29.42-.81.56-.78.34.07.85.35.89.62.16.88.2,1.79.2,2.69.02,8.75.02,17.49.03,26.24,0,.6,0,1.21-.01,1.81-.02,1.26.65,1.48,1.76,1.3,2.07-.32,4.14-.62,6.22-.78,1.48-.11,3.01-.24,4.35.76.28.21.78.21,1.17.18,4.2-.24,8.45.46,12.59-.78.75-.22,1.6-.15,2.4-.19,5.61-.28,11.3-.09,16.82-.97,5.61-.89,11.2-.56,16.77-1.01,4.99-.4,9.96-1.04,14.95-1.57.3-.03.6-.04.9-.06,5.41-.31,10.82-.51,16.22-.95,5.08-.41,10.13-1.09,15.2-1.6,2.3-.23,4.61-.31,6.92-.49.28-.02.54-.2.82-.3-.25-.11-.5-.31-.75-.3-3.7.1-7.41.21-11.11.35-2.51.09-5.02.17-7.52.37-1.79.14-3.56.46-5.33.7-.5.07-.99.18-1.49.21-5.01.28-10.02.49-15.03.83-7.1.49-14.19,1.01-21.27,1.65-2.36.21-4.78-.24-7.1.96-.67.35-2.01-.57-3.04-.92-.09-.03-.13-.2-.2-.31.19-.04.39-.1.59-.11,1.19-.11,1.66-.43.82-1.66-.33-.5-.13-1.37-.13-2.07-.04-8.04-.03-16.08-.12-24.12-.05-4.53.13-9.04.89-13.51.08-.49.12-1,.17-1.5.15-1.33-.56-1.87-1.77-1.82-1.1.05-2.2.21-3.3.33-4.88.56-9.76,1.14-14.64,1.7-.8.09-1.6.13-2.4.11-.21,0-.41-.33-.61-.51.2-.16.37-.44.59-.47,2.08-.3,4.17-.57,6.25-.84,6.96-.91,13.91-1.85,20.88-2.72,2.88-.36,5.79-.5,8.67-.87,6.76-.87,13.5-1.84,20.25-2.72,2.78-.37,5.58-.56,8.36-.95,6.05-.85,12.09-1.82,18.15-2.64,5.56-.75,11.14-1.35,16.71-2.05,1.59-.2,3.16-.58,4.75-.81,3.87-.54,7.76-.98,11.62-1.57,5.44-.83,10.86-1.84,16.3-2.64,5.45-.81,10.93-1.44,16.39-2.18,1.39-.19,2.76-.5,4.15-.73,5.54-.91,11.08-1.83,16.62-2.72,7.62-1.21,15.24-2.43,22.87-3.58,4.95-.75,9.93-1.37,14.89-2.06.6-.08,1.18-.23,1.78-.33,4.64-.79,9.28-1.57,13.93-2.35.39-.07.81-.14,1.19-.07.23.04.4.36.6.55-.21.14-.43.4-.64.39-1.48-.04-2.74.38-3.83,1.43-.31.3-.92.29-1.41.37-6.72,1.13-13.43,2.3-20.16,3.36-5.05.79-10.12,1.42-15.18,2.15-1.69.24-3.36.6-5.04.87-5.24.86-10.48,1.77-15.73,2.54-5.06.74-10.13,1.39-15.21,1.97-1.22.14-1.53.7-1.53,1.72,0,2.11,0,4.22,0,6.33.03,14.17.04,28.35.12,42.52,0,1.15-.77,2.72,1.09,3.35.06.02.06.59-.02.63-1.42.54-1.11,1.77-1.11,2.82-.02,6.94-.03,13.87,0,20.81,0,2.78.53,3.28,3.35,3.37.3.01.6-.03.9-.01.39.03.78.09,1.17.14-.35.06-.7.17-1.05.18-.9.03-1.82.1-2.71,0-1.13-.11-1.65.16-1.63,1.43.05,3.31-.05,6.63-.02,9.94.02,1.98.08,2.02,2.05,2.01,5.63-.01,11.26-.05,16.89-.09,18.7-.14,37.39-.3,56.09-.44.5,0,1.01-.02,1.51,0,3.37.21,3.2.25,3.18-3.25-.01-2.01-.03-4.02,0-6.03.02-1.02-.44-1.47-1.43-1.46-.8,0-1.61-.01-2.41,0-19.7.11-39.41.26-59.11.32-4.12.01-8.23-.3-12.35-.48-.4-.02-.79-.11-1.19-.17.37-.05.73-.14,1.1-.15,4.62-.07,9.25-.16,13.87-.17,19.3-.04,38.61-.05,57.91-.08.8,0,1.64.1,2.4-.08.44-.1.76-.68,1.13-1.04-.36-.25-.69-.66-1.07-.71-.79-.11-1.6-.03-2.41-.03-21.21.02-42.43.04-63.64.07-.5,0-1.01.03-1.51.01-.19,0-.37-.11-.56-.16.22-.09.43-.24.65-.26.7-.05,1.41-.05,2.11-.06,10.56-.12,21.11-.24,31.67-.35,10.25-.11,20.51-.21,30.76-.33.6,0,1.21-.01,1.81-.1,2.15-.31,2.26-.41,2.26-2.68.02-8.75.03-17.49.01-26.24,0-2.31-.05-2.48-2.3-2.4-4.21.15-8.41.49-12.62.8-8.91.67-17.82,1.36-26.73,2.06-7.5.59-15,1.19-22.51,1.77-3.19.25-6.39.46-9.59.66-.33.02-.67-.15-1-.23.29-.07.58-.16.87-.2,2.76-.4,5.51-.89,8.28-1.13,1.18-.1,1.43-.82,1.8-1.6.65.4.42,1.78,1.7,1.49.38-.09.8,0,1.2-.04,4.59-.48,9.18-.98,13.77-1.47.7-.07,1.4-.21,2.1-.22,6.74-.07,13.41-.88,20.09-1.73,2.38-.3,4.82-.13,7.23-.27.49-.03.95-.51,1.42-.78-.37-.35-.72-.73-1.12-1.05-.14-.11-.39-.09-.58-.12.21-.12.42-.3.64-.34.58-.09,1.19-.23,1.75-.13.55.09,1.6.08.29,1.07-.59.45.52.82,1.06.78,2.81-.19,5.61-.43,8.41-.68,1.1-.1,2.19-.36,3.29-.37,2.95-.02,2.55-.26,2.55-2.74,0-17.99,0-35.99.01-53.98,0-.9-.06-1.82.07-2.71.33-2.26,1.34-2.79,3.29-1.58,3.81,2.36,7.59,4.77,11.31,7.26,4.05,2.72,8,5.58,12.03,8.33,1.33.91,2.22,1.83,1.32,3.56-.21.4-.04.99-.04,1.49.11,17.59.25,35.18.3,52.77.02,6.73-.24,13.46-.23,20.19,0,12.16.14,24.32.18,36.48.11,34.58.26,69.16.27,103.73,0,11.46-.37,22.91-.57,34.37-.02.9,0,1.81.08,2.71.31,3.39-.87,6.23-3.09,8.73-8.27,9.29-15.98,19.03-23.3,29.07-1.51,2.07-2.01,2.09-4.54,1.16-2.81-1.03-5.69-1.92-8.55-2.81-4.57-1.42-9.16-2.78-13.74-4.2-5.35-1.65-10.68-3.32-16.02-4.99-2.19-.69-4.38-1.39-6.57-2.09-8.83-2.84-17.66-5.71-26.49-8.53-5.5-1.76-11.03-3.43-16.53-5.17-3.89-1.23-7.76-2.52-11.64-3.77-1.33-.43-1.57-.26-1.67,1.18-.05.7-.01,1.41-.01,2.11,0,19-.11,38,.06,56.99.03,2.99-1.39,4.75-3.38,6.15-11.56,8.09-23.27,15.97-34.83,24.07-14.26,10-28.4,20.15-42.61,30.22-6.17,4.37-12.36,8.7-18.56,13.02-2.69,1.87-5.43,3.66-8.15,5.48-.85.57-1.42.84-2.04-.48-.47-1-1.59-1.71-2.49-2.47-2.5-2.11-4.81-4.61-7.64-6.12-2.58-1.38-2.47-3.22-2.47-5.4.02-22.42.04-44.83.05-67.25.01-29.65,0-59.31.05-88.96,0-1.89.27-3.79.56-5.66.19-1.22-.14-1.89-1.33-2.26-2.48-.76-4.93-1.65-7.41-2.4-5.55-1.67-11.11-3.3-16.67-4.93-3.06-.9-6.15-1.7-9.19-2.65-1.06-.33-1.57-.14-1.59.94-.05,3.11-.07,6.23-.05,9.34,0,1.53.4,2.61,2.35,2.81,1.32.14,2.57,1.04,3.8,1.69.24.13.28.64.41.97-.31.07-.65.25-.93.18-2.21-.49-4.43-.97-6.62-1.57-7.21-1.94-14.59-2.83-22-2.96-4.58-.09-9.17.88-13.77,1.29-5.23.48-10.22,1.86-15.16,3.56-2.73.94-5.51,1.76-8.28,2.6-.24.07-.63.02-.79-.14-.11-.12-.04-.57.1-.75.43-.53.84-1.24,1.42-1.45,3.66-1.29,7.33-2.54,11.05-3.65"/>
  <path class="cls-1" d="m373.96,366.72c-.52.96-.57.19-.74-.25-.13-.34-.36-.65-.55-.97-.23.26-.55.48-.67.78-.32.77-.61,1.56-.79,2.37-.06.28,1.09.45.22.96-.11.06-.59-.42-.84-.7-.11-.13-.04-.4-.12-.58-.2-.49-.47-1.38-.66-1.37-.87.06-1.09.7-.88,1.52.08.29.12.6.1.89-.02.29-.15.57-.23.86-.09-.28-.25-.55-.26-.83-.05-1.02-.56-1.18-1.39-.8-.54.25-1.13.46-1.59.83-.8.65-1.16.77-2.01-.2-.88-1-3.92.5-4.01,1.84-.02.33.27.79.56,1.03,2.25,1.84,4.62,3.54,7.56,4.01,4.3.68,8.61,1.47,12.94,1.66,1.67.07,3.7,1.05,5.33-.5,0,0,.32.26.42.44.16.27.25.81.38.81,1.69,0,3.39-.06,5.08-.13.16,0,.42-.35.46-.32.95.74,1.89,1.09,2.86.05,1.47,1.9,3.63-.85,5.2.77.24.25,1.04.17,1.45-.02,1.14-.52,2.18-1.2,3.41-.15.17.15.82-.05,1.09-.28.86-.73,1.64-1.45,2.48,0,.02.04.2.03.29,0,.89-.37,2.25-1.29,2.56-1.02.97.85,1.83.51,2.78.37.45-.07,1-.35,1.33-.18,1.08.56,1.67-.06,2.33-.72.22-.22.59-.3.88-.45.37,1.65,1.25.94,1.74.22.54-.78.58-.65,1.26-.09.48.39,1.61.09,2.43-.04,1.04-.17,2.06-.68,3.08-.67,2.64.04,4.76-1.25,6.96-2.38.61-.31,1.03-.72,0-1.11-1.41-.52-2.77-1.18-4.21-1.58-1.73-.48-3.51-.76-5.28-1.1-6.82-1.34-13.72-1.64-20.64-1.78-.88-.02-1.75-.24-2.63-.37.91-.14,1.83-.39,2.74-.41,3.52-.05,7.05-.22,10.55.03,3.27.24,6.52.89,9.76,1.5,3.12.59,6.22,1.31,9.31,2.06,1.25.31,2.46.8,3.64,1.33,1.59.71,1.86,2,.81,3.33-.12.16-.28.29-.42.44-.6.63-1.19,1.27-1.79,1.9,1.04-.09,2.14-.02,3.12-.31,1.62-.49,3.23-1.09,4.73-1.88,2.5-1.32,2.67-2.2,1.1-4.47-.42-.62-1.04-1.11-1.62-1.61-.38-.33-.85-.55-1.28-.82.46-.16.91-.41,1.38-.47,2.17-.25,4.29,1.75,4.34,4.13.02.67-.26,1.35-.3,2.03-.02.29.2.61.31.91.28-.22.65-.38.83-.66.42-.68-.15-2.26,1.19-1.98,1.51.32.54,1.7.37,2.52-.48,2.34-.96,4.73-1.81,6.95-2.32,6.02-5.94,11.24-10.61,15.68-5.34,5.07-11.53,8.74-18.55,11.05-.87.29-1.68,1.07-2.3,1.8-1.58,1.87-2.4,4.09-2.77,6.51-1.11,7.36-1.5,14.77-1.5,22.21,0,4.92-.54,9.85-.33,14.75.22,5.11-2.33,8.33-6.19,10.94-1.23.83-1.45,1.71-1.31,3.22.84,9.31,1.36,18.63.98,27.99-.01.29.03.64-.11.86-.21.32-.54.7-.87.74-.21.03-.72-.49-.72-.76.04-1.89-1.85-3.23-1.14-5.48.52-1.65-.25-3.67-.24-5.53.03-6.34.12-12.67.25-19.01.02-.72.08-1.14-.78-1.12-.71.02-1.47-.06-1.52.96-.02.4.02.8.02,1.2.01,8.34.03,16.68.02,25.02,0,.9.2,2.02-.24,2.65-1.14,1.61-.22,1.53.96,1.6.36.02.69.43,1.03.65-.24.3-.45.63-.73.89-.13.12-.39.22-.56.18-2.97-.71-5.38.93-7.94,1.91-.21.08-.41.28-.54.47-.03.05.18.37.34.43.73.3,1.48.74,2.24.8,1.8.13,3.62.13,5.42.05.65-.03,1.39-.31,1.88-.72.7-.58,1.15-.84,2.04-.22.39.28,1.32-.13,1.97-.32.2-.06.45-.38.47-.6.13-1.79.24-1.92,2.01-1.61,1.18.21,2.35.51,3.53.72,1.76.31,1.8.48,1.13,2.01-.59,1.34-1.72,1.88-2.91,2.39-.86.37-2.39-.25-2.2,1.58-.23,0-.57.09-.67-.03-.98-1.11-2.21-.71-3.39-.64-3.62.21-7.25.36-10.75-.76-1.53-.49-2.93-1.38-4.35-2.16-.05-.03.27-1.18.56-1.26,2.74-.7,5.11-2.09,7.54-3.47,1.15-.65,1.57-1.14,1.56-2.39-.04-6.83-.01-13.67,0-20.5,0-1.61-.03-3.22.03-4.82.03-.79.02-1.71.41-2.32.7-1.09.37-1.71-.61-2.11-3.02-1.24-4.02-3.94-4.97-6.7-.6-1.74.11-2.92,2-3.03,2-.11,4.02-.03,6.03-.02.2,0,.4.05.6.04,1.16-.06,2.87.3,3.33-.29.61-.79.32-2.34.28-3.56-.04-1.08-.54-1.18-1.28-.41-.17.18-.46.25-.7.37.1-.32.11-.81.32-.92,2.06-1.05,1.77-2.78,1.53-4.62-.15-1.13.12-2.31.15-3.47,0-.27-.14-.67-.34-.78-.17-.09-.58.08-.78.26-.67.6-1.26,1.28-1.94,1.86-.23.2-.62.21-.94.31.13-.34.16-.78.4-1.01.77-.75,1.55-1.54,2.46-2.09,1.25-.75,1.61-1.65.99-2.96-.08-.18-.29-.47-.25-.5,1.79-1.6.61-3.78.85-5.61.2-1.53.1-3.38.23-4.97.14-1.68-.65-3.43.25-5.06.11-.2-.03-.53-.06-.8-.33.07-.69.08-1,.21-.26.12-.44.4-.69.56-.27.18-.58.29-.87.44,0-.39-.09-.82.05-1.14.24-.54.78-.97.92-1.52.15-.6-1.25-.88-.46-1.83.48-.57.96-1.3,1.05-2.01.13-1.06.28-1.89,1.3-2.51.35-.21.44-1.09.37-1.63-.03-.2-.85-.45-1.3-.42-3.28.24-6.01-.9-8.58-2.88-.96-.74-2.43-.93-3.7-1.14-.95-.16-1.49.37-1.09,1.46.37,1.03.75,2.07.98,3.14.23,1.07.67,2.32.34,3.24-.97,2.66-.61,5.34-.62,8.02,0,5.12.18,10.24.14,15.36-.03,4.21.18,15.68.02,19.89,0,.27-.64-6.73-.75-6.47-.14-.25-.38-.5-.4-.76-.14-1.5-.31-3.01-.3-4.51.06-10.55.17-21.1.26-31.65,0-.3.03-.6.03-.9,0-2.25-.34-2.54-2.43-1.96-2.12.59-4.24,1.16-6.34,1.83-4.85,1.55-9.69,3.12-14.51,4.75-5.85,1.98-11.68,4.02-17.51,6.06-3.29,1.15-6.55,2.4-9.85,3.51-1.02.34-1.15,1.01-1.14,1.84.07,4.32.06,8.64.27,12.96.14,2.8.61,5.59.94,8.38.14,1.22.62,1.94,2.03,2.13,1.75.24,3.46.81,5.17,1.31.5.15,1.25.56,1.27.89.03.49-.35,1.23-.79,1.49-1.19.69-2.45,1.5-3.77,1.67-1.29.17-1.44.71-1.44,1.7,0,.28-.17.57-.26.85-.22-.17-.54-.3-.64-.53-.58-1.25-1.54-1.26-2.76-1.2-2.09.1-4.19-.06-6.29-.14-.19,0-3.18-2.06-3.36-2.22.15-.13,3.11,1.43,3.28,1.4.97-.19,1.95-.33,2.93-.51,2.14-.4,4.29-.79,6.42-1.24.87-.19.43-.72.1-1.05-.68-.69-1.41-1.35-2.15-1.98-.19-.16-.52-.26-.77-.24-1.49.14-1.5.16-1.45-1.28,0-.2.13-.41.09-.58-2.16-8.14-.05-16.4-.69-24.58-.08-1,.1-2.01,0-3-.12-1.21-1.25-1.28-2.07-1.31-.98-.04-.88.88-.86,1.57.18,6.12.41,12.25.51,18.37.04,2.71-.17,5.42-.31,8.13-.02.33-.34.65-.52.98-.08-.37-.24-.74-.24-1.11-.02-5.13-.03-10.25-.03-15.38,0-1.11.04-2.21,0-3.32-.05-1.54-.1-1.6-1.67-.9-.93.41-1.58.51-2.37-.34-.98-1.06-2.17-1.93-3.27-2.89.62.23,1.22.53,1.85.66.36.07,1.02,0,1.14-.22,1.18-2.18.49-5.11-1.49-6.58-1.12-.83-2.26-1.65-3.4-2.45-2.06-1.43-2.54-1.22-2.78,1.2-.03.3-.04.6-.09.9-.03.19-.13.37-.2.55-.09-.22-.25-.44-.26-.66-.05-.6-.14-1.22-.03-1.8.28-1.58-.22-2.75-1.64-3.5-.5-.26-1.04-.45-1.56-.67-.18.51-.39,1.02-.52,1.54-.16.63-.25,1.28-.37,1.92-.1-.69-.21-1.38-.3-2.07-.04-.3-.05-.61,0-.9.24-1.4-.44-2.19-1.59-2.9-2.04-1.24-3.98-2.65-5.97-3.99q-2.42-1.62-2.77,1.13c-.04.29-.11.58-.16.88-.09-.33-.31-.68-.26-.98.45-2.49-.81-3.91-2.87-4.96-1.1-.56-2.09-1.33-3.15-1.98-4.79-2.99-9.58-5.98-14.38-8.95-1.34-.83-2.74-1.58-4.09-2.41-1.05-.64-1.4-.23-1.52.84-.09.87-.31,1.73-.48,2.59.05-4.53.1-4.61-3.48-6.8-5.18-3.18-10.44-6.22-15.67-9.33-.33-.2-.59-.51-.91-.72-.48-.31-.99-.57-1.49-.86-.15.55-.3,1.09-.43,1.65-.09.35-.14.71-.21,1.07-.06-.4-.19-.8-.17-1.19.08-1.8-.67-2.63-2.4-3.54-3.47-1.83-6.57-4.35-9.85-6.55-.34-.23-.87-.17-1.31-.25.04.36-.03.8.15,1.08.63.94.63,1.87.15,2.84-.11.22-.25.42-.37.64-.1-.28-.18-.58-.34-.82-.04-.05-.53.07-.57.18-.14.47-.01,1.16-.3,1.43-.52.47-1.28.99-1.91.95-.83-.04-1.46-1.66-1.25-2.44.15-.55.23-1.14.21-1.71-.23-8.23-.67-16.47-.68-24.7-.03-19.6.19-39.2.21-58.8.04-43.02.03-86.04.03-129.07,0-2.21-.1-4.42-.04-6.63.13-4.61.31-9.22.52-13.83.02-.38.32-.94.64-1.09,5.32-2.47,10.65-4.93,16.02-7.3,4.93-2.18,9.88-4.3,14.85-6.37,5.15-2.14,10.35-4.15,15.51-6.26,3.6-1.47,7.16-3.04,10.76-4.51,5.26-2.15,10.54-4.24,15.8-6.37,3.32-1.35,6.62-2.76,9.95-4.09,5.73-2.29,11.49-4.52,17.23-6.8,3.79-1.51,7.56-3.1,11.36-4.59,5.28-2.08,10.58-4.11,15.87-6.16,3.81-1.48,7.61-2.98,11.43-4.43,5.78-2.19,11.58-4.32,17.36-6.5,3.92-1.48,7.81-3.04,11.73-4.49,5.79-2.15,11.61-4.23,17.42-6.35,3.74-1.37,7.47-2.8,11.22-4.14,6.38-2.29,12.78-4.52,19.17-6.8,3.85-1.37,7.69-2.8,11.54-4.17,1.88-.67,3.77-1.32,5.68-1.88.83-.24,1.16-.69,1.16-1.49,0-1.11-.01-2.21,0-3.32.2-11.05.42-22.11.61-33.16.01-.77-.17-1.54-.26-2.31-.68.36-1.37.72-2.04,1.1-6.24,3.54-12.71,6.6-19.3,9.42-5.5,2.36-10.86,5.06-16.27,7.62-6.1,2.88-12.21,5.76-18.3,8.67-5.68,2.71-11.33,5.48-17.02,8.17-5.74,2.71-11.54,5.32-17.28,8.05-5.5,2.62-10.94,5.37-16.43,8.01-5.75,2.77-11.53,5.45-17.28,8.22-4.2,2.02-8.35,4.15-12.55,6.18-5.74,2.78-11.5,5.5-17.25,8.27-4.23,2.04-8.44,4.12-12.68,6.16-5.73,2.76-11.47,5.48-17.2,8.23-4.49,2.16-8.96,4.35-13.45,6.51-5.49,2.64-10.98,5.27-16.48,7.89-4.57,2.17-9.15,4.32-13.73,6.46-4.79,2.23-9.59,4.44-14.4,6.64-.32.14-.73.08-1.1.11.15-.42.2-.96.49-1.23.5-.45,1.13-.76,1.74-1.07,6.85-3.44,13.67-6.94,20.57-10.28,5.66-2.74,11.44-5.22,17.12-7.91,5.75-2.72,11.44-5.59,17.18-8.34,5.58-2.68,11.21-5.26,16.79-7.94,5.56-2.67,11.08-5.42,16.63-8.11,5.63-2.73,11.27-5.42,16.9-8.14,4.22-2.04,8.43-4.13,12.64-6.18,5.56-2.72,11.12-5.44,16.7-8.14,4.37-2.12,8.77-4.19,13.15-6.29,5.83-2.79,11.67-5.58,17.49-8.39,5.31-2.56,10.59-5.18,15.9-7.74,5.91-2.85,11.86-5.63,17.77-8.48,5.74-2.77,11.44-5.62,17.18-8.4,6.2-3,12.41-5.98,18.65-8.91,1.25-.59,2.61-1.07,3.97-1.29,1.67-.27,2.57-.96,2.43-2.73-.02-.29.11-.58.17-.88.08.27.19.54.25.82.49,2.25,1.93,3.63,3.92,4.65,11.08,5.66,22.17,11.31,33.2,17.07,8.57,4.47,17.04,9.13,25.59,13.64,6.32,3.33,12.71,6.52,19.04,9.83,6.28,3.28,12.51,6.67,18.78,9.96,3.95,2.07,7.95,4.04,11.91,6.09,1.05.55,2.07,1.18,3.05,1.86.47.32.8.85,1.19,1.28-.5.08-1.03.08-1.49.27-.37.15-.85.5-.91.83-.14.78-.09,1.6-.08,2.4.08,6.93.18,13.87.24,20.8.02,1.91-.07,3.82-.17,5.72-.08,1.42-.29,1.51-1.59.92-.39-.18-.86-.46-1.24-.39-3.14.58-6.26,1.26-9.39,1.86-4.41.85-8.83,1.65-13.24,2.49-.98.19-1.94.51-2.91.73-6.73,1.51-13.45,3.04-20.19,4.52-5.57,1.22-11.15,2.4-16.73,3.59-5.67,1.22-11.34,2.46-17.03,3.64-4.7.97-9.43,1.81-14.12,2.8-3.81.81-7.56,1.84-11.37,2.63-4.68.98-9.39,1.81-14.09,2.73-2.44.48-4.86,1.07-7.31,1.54-.76.14-1.64.21-2.33-.04-.56-.2-.93-.94-1.38-1.44.54-.23,1.05-.57,1.61-.69,5.65-1.2,11.29-2.41,16.96-3.54,4.7-.94,9.42-1.74,14.11-2.68,4.41-.88,8.79-1.93,13.2-2.8,5.21-1.03,10.44-1.91,15.65-2.95,6.97-1.39,13.91-2.91,20.88-4.3,5.1-1.01,10.24-1.82,15.33-2.86,6.85-1.39,13.66-2.95,20.51-4.34,3.12-.63,6.28-1.02,9.42-1.52.16-.03.31-.17.46-.26-.11-.16-.19-.4-.35-.47-.62-.31-1.27-.59-1.91-.86-4.5-1.91-8.99-3.82-13.49-5.74-1.29-.55-2.55-.88-4-.5-3.68.94-7.4,1.74-11.1,2.62-5.35,1.27-10.7,2.53-16.04,3.85-5.72,1.41-11.41,2.94-17.14,4.32-6.52,1.57-13.07,2.99-19.59,4.54-7.68,1.82-15.35,3.73-23.03,5.57-6.61,1.58-13.25,3.08-19.86,4.65-2.24.53-4.46,1.16-6.7,1.72-.99.25-1.29.98-1.19,1.82.25,2.11-.6,4.43,1.22,6.26.24.23.36,1.02.23,1.11-1.95,1.38-.91,3.53-1.45,5.25-.08.25-.33.45-.51.68-.15-.29-.42-.57-.43-.87-.07-1.1-.03-2.21-.07-3.31-.03-.82-.43-.89-1.2-.72-5.06,1.09-10.14,2.09-15.21,3.17-4,.85-7.96,1.89-11.97,2.62-2.44.44-4.97.46-7.46.65-.16.01-.33-.16-.49-.25.08-.16.16-.44.25-.45,1.24-.07,1.88-1.93,3.39-1.14,1.52.8,2.29-.87,3.55-1.07,2.65-.42,5.27-1.08,7.9-1.67,4.18-.94,8.35-1.94,12.53-2.83,1.95-.42,3.95-.62,5.92-.97,2.53-.44,2.81-.78,2.84-3.29.01-1.01-.01-2.01,0-3.02.01-1.15-.6-1.32-1.56-1.07-2.13.54-4.27,1.06-6.41,1.56-6.91,1.62-13.83,3.21-20.73,4.84-2.92.69-5.81,1.52-8.74,2.15-3.25.69-6.43,1.61-9.64,2.44-3.19.83-6.38,1.68-9.59,2.47-4.75,1.17-9.51,2.32-14.27,3.45-3.98.95-7.99,1.8-11.96,2.78-6.85,1.7-13.71,3.36-20.62,4.84-3.42.73-6.78,1.73-10.18,2.55-5.24,1.27-10.48,2.51-15.74,3.72-2.62.61-5.26,1.14-7.91,1.66-.26.05-.6-.26-.9-.41.25-.11.49-.26.74-.33,3.86-1.01,7.71-2.04,11.57-3,5.9-1.47,11.82-2.89,17.73-4.35,3.78-.94,7.53-2.02,11.33-2.86,6.09-1.35,12.02-3.34,18.18-4.43,3.92-.69,7.73-2.04,11.61-2.99,5.82-1.43,11.66-2.77,17.49-4.16.58-.14,1.15-.35,1.73-.51,1.91-.54,3.75-1.41,5.83-1.02.37.07.88.03,1.18-.17,3.1-2.12,6.85-2.11,10.28-3.09,5.86-1.66,11.86-2.84,17.79-4.28,3.7-.9,7.37-1.91,11.06-2.83,1.28-.32,1.82-.99,1.75-2.35-.1-2.11-.05-4.22-.04-6.33,0-.97-.54-1.19-1.35-1.11-.4.04-.8.1-1.19.2-5.68,1.6-11.34,3.25-17.03,4.8-5.2,1.42-10.43,2.73-15.63,4.11-2.22.59-4.42,1.24-6.63,1.89-5.37,1.58-10.72,3.23-16.1,4.75-7.3,2.06-14.62,4.01-21.94,6.02-2.41.66-4.82,1.31-7.21,2.01-5.46,1.6-10.91,3.27-16.38,4.82-7.1,2.01-14.24,3.91-21.35,5.89-4.23,1.18-8.61,2.06-12.61,3.79-3.43,1.48-7.15,1.54-10.54,3.02-1.21.53-1.98-.17-3.38-.07.58-.47.32-.71.99-.93,3.57-1.17,7.16-2.31,10.78-3.31,5.86-1.63,11.76-3.1,17.63-4.71,6.26-1.72,12.5-3.46,18.73-5.29,6.5-1.91,12.98-3.88,19.55-5.54,6.48-1.64,12.89-3.56,19.32-5.4,5.38-1.54,10.73-3.16,16.09-4.75,2.39-.71,4.77-1.47,7.18-2.12,7.32-1.99,14.66-3.9,21.97-5.91,5.97-1.64,11.9-3.41,17.87-5.06.83-.23,1.22-.55,1.22-1.38.01-1.11.03-2.21.07-3.32.01-.29.14-.57.22-.85.13.22.3.43.37.67.33,1.21-.52,3,.84,3.54,1.02.41,2.47-.28,3.73-.49.4-.07.79-.13,1.18-.25,7.57-2.24,15.14-4.48,22.71-6.71,2.2-.65,4.41-1.27,6.63-1.88,7.22-1.97,14.45-3.86,21.65-5.89,5.38-1.52,10.69-3.26,16.06-4.82,2.87-.84,5.8-1.48,8.69-2.26,2.31-.63,4.62-1.29,6.9-2.03.39-.13.63-.71.93-1.08-.34-.15-.68-.3-1.02-.44-2.02-.84-4.05-1.67-6.07-2.53-4.94-2.12-9.84-4.33-14.81-6.35-1.99-.81-4.02-1.78-6.36-.97-1.38.48-2.55-.65-2.87-1.61-.63-1.9-2.3-2.09-3.61-2.85-.93-.55-2.04-.78-3.06-1.21-4.96-2.08-9.96-4.04-14.83-6.31-2.27-1.06-4.94-1.45-6.69-3.52,1.05.28,2.11.51,3.14.84,1.33.43,2.62.99,3.94,1.42.74.24,1.04-.05,1-.91-.15-2.9-.3-5.81-.29-8.72.02-6.72.14-13.45.22-20.17.02-1.91-.21-3.87.18-5.7.49-2.33-.71-3.18-2.41-4.12-1.02-.56-1.27-.29-1.29.62-.05,2.11.04,4.22-.03,6.32-.27,8.82-.58,17.64-.87,26.47-.02.5-.05,1-.08,1.5-.01.2.03.47-.08.58-.25.26-.58.58-.88.59-.19,0-.59-.5-.58-.77.02-1.8.1-3.61.19-5.41.51-9.72,1.04-19.43,1.54-29.15.05-.98.28-2.21-1.21-2.18-.23,0-.58,1.45-.61,2.24-.09,2.41,0,4.82-.07,7.23-.06,2-.28,4-.4,6-.44,7.81-.87,15.61-1.3,23.42-.69-.11-1.42-.1-2.05-.35-2.02-.8-2-.83-2.58,1.15-.08.26-.27.48-.41.72-.23-.25-.49-.48-.69-.76-.11-.15-.11-.38-.16-.58-.63-2.25-.62-2.23-2.69-1.48-4.41,1.6-8.83,3.17-13.26,4.75-6.01,2.14-12.03,4.23-18.02,6.4-3.94,1.42-7.83,2.98-11.76,4.42-6.17,2.27-12.38,4.47-18.55,6.75-3.55,1.31-7.05,2.76-10.59,4.1-5.78,2.18-11.58,4.3-17.35,6.5-3.72,1.42-7.39,2.97-11.11,4.41-5.38,2.09-10.79,4.09-16.17,6.2-5.38,2.11-10.72,4.31-16.09,6.44-5.64,2.24-11.31,4.43-16.95,6.68-3.42,1.36-6.81,2.82-10.23,4.19-5.35,2.16-10.73,4.28-16.08,6.44-3.51,1.42-6.98,2.93-10.49,4.35-5.44,2.22-10.89,4.39-16.33,6.59-3.69,1.49-7.39,2.97-11.06,4.5-4.05,1.69-8.08,3.43-12.12,5.16-.26.11-.48.33-.72.49.3.18.59.49.92.53,3.37.46,6.76.79,10.13,1.31,4.94.77,9.85,1.77,14.8,2.42,1.48.2,3.15-.25,4.61-.75,3.22-1.09,6.33-2.49,9.54-3.61,8.56-3,17.15-5.93,25.74-8.88,2.07-.71,4.15-1.4,6.24-2.08,4.55-1.49,9.1-2.94,13.64-4.45,4.45-1.48,8.85-3.08,13.31-4.52,6.26-2.02,12.55-3.91,18.82-5.92,7.32-2.34,14.62-4.72,21.92-7.13,10.32-3.42,20.63-6.88,30.95-10.32,2.08-.69,4.17-1.36,6.27-2.02,5.13-1.62,10.28-3.21,15.41-4.84,4.38-1.39,8.73-2.87,13.12-4.23,4.57-1.42,9.18-2.71,13.74-4.15,4.95-1.56,9.85-3.28,14.81-4.83,7.42-2.33,14.88-4.56,22.31-6.88,2.26-.7,3.58-.7,6.29-.02.68.17,1.5-.34,2.27-.45.36-.05.76.11,1.14.18-.26.26-.47.58-.78.75-.51.3-1.05.58-1.62.73-2.7.71-5.44,1.29-8.12,2.07-8.34,2.41-16.68,4.86-25,7.34-7.94,2.36-15.88,4.73-23.79,7.18-7.06,2.18-14.09,4.47-21.13,6.7-2.19.69-4.38,1.38-6.58,2.05-6.49,1.97-13,3.88-19.46,5.92-4.86,1.53-9.64,3.29-14.5,4.83-8.26,2.63-16.56,5.16-24.83,7.77-5.41,1.72-10.8,3.5-16.19,5.29-7.28,2.42-14.56,4.84-21.83,7.31-7.08,2.41-14.13,4.89-21.19,7.33-8.96,3.09-17.92,6.18-26.88,9.28-.73.25-1.43.6-2.15.9.72.31,1.42.66,2.15.9.57.19,1.18.23,1.77.34,3.73.7,7.46,1.46,11.2,2.09,1.86.31,3.76.38,5.64.55,1.96.63,3.87,1.51,5.88,1.81,1.92.29,3.73,1.63,5.83.75.24-.1.7.32,1.06.47,1.85.74,3.7,1.5,5.57,2.19.43.16,1,.15,1.43,0,6.19-2.04,12.67-2.77,19-4.19,4.09-.92,8.2-1.81,12.32-2.62,3.82-.75,7.82-.92,11.46-2.17,3.62-1.24,7.36-1.45,10.99-2.38,5.52-1.42,11.11-2.52,16.68-3.73,5.37-1.17,10.75-2.32,16.13-3.47,2.25-.48,4.49-.97,6.75-1.39.39-.07.84.24,1.27.38-.32.54-.53,1.39-.99,1.57-1.01.38-2.15.39-3.23.6-5.5,1.08-11,2.14-16.49,3.27-4.61.95-9.2,2-13.8,2.96-2.84.59-5.7,1.07-8.54,1.63-.33.07-.61.37-.91.57.3.22.58.57.91.63,2.86.52,5.73.96,8.6,1.46,1.76.31,3.5.72,5.25,1.05,3.73.68,7.46,1.35,11.19,2,4.61.8,9.23,1.56,13.84,2.39,1.47.26,2.91.74,4.38.98,2.07.34,4.17.52,6.25.87.38.06.69.6,1.03.91-.24.22-.48.45-.73.65-.23.18-.54.28-.71.5-.73.95-1.41,1.82-2.18.01-.08-.19-.5-.3-.77-.34-3.26-.42-6.55-.73-9.79-1.26-3.39-.55-6.74-1.33-10.11-1.96-4.29-.81-8.6-1.54-12.89-2.37-1.34-.26-2.64-.72-3.98-1.03-3.6-.82-7.21-1.6-10.82-2.4-.29-.06-.61-.06-.89-.16-2.99-.98-5.08-1.03-7.53-.44-4.07.98-8.24,1.54-12.36,2.3-1.08.2-2.15.47-3.22.71-3.99.9-7.98,1.86-11.99,2.7-3.52.74-7.05,1.44-10.6,2.01-1.27.2-1.7.76-1.74,1.94-.1,2.71-.39,5.41-.39,8.11-.02,10.44.02,20.89.08,31.33.04,7.53.21,15.06.23,22.59.01,3.21-.3,6.42-.28,9.63.06,8.24.29,16.47.32,24.71.01,3.31-.33,6.61-.47,9.92-.03.72-.72,1.56.28,2.16-.33.49-.64,1-1.01,1.46-.24.29-.57.51-.85.75.43.19.85.53,1.29.55,1.5.07,3.01.08,4.51-.01.54-.03,1.19-.22.47-1.12-.86-1.06-1.52-2.3-2.17-3.51-.15-.29.07-.77.12-1.17.17.24.31.51.51.72.53.56,1.02,1.2,1.66,1.6.66.42,1.51.52,2.22.88,1.98,1.02,3.61,2.06,3.45,4.89-.18,3.16.3,6.37.59,9.55.12,1.35,1.42,2.05,1.86,1.21.9-1.67,1.04-.93,1.2.19.11.78.05,1.59.01,2.38-.06,1.14-.3,1.06-1.26.47-.81-.5-2.27-.06-2.2,1.21.1,1.89-.9,1.89-2.2,1.8-.3-.02-.63-.08-.9.01-1.67.58-1.24.13-1.26-1.34-.03-2.09-.21-4.24-.28-6.37-.04-1.41-.18-2.78,1.22-3.76.32-.22.38-.88.46-1.36.03-.2-.19-.44-.29-.66-.13.14-.26.29-.39.43-.39.43-.88.82-.81-.18.07-.98.43-1.94.63-2.92.36-1.72.2-1.98-1.45-2.08-.8-.05-1.61.04-2.41.03-1.51,0-3.02.03-4.52-.08-.7-.05-1.38-.41-2.06-.64.41-.51.72-1.16,1.24-1.51.95-.65,1.16-1.42,1.16-2.54-.05-21.7-.04-43.41-.05-65.11,0-.4.06-.81,0-1.2-.05-.35-.22-.68-.34-1.02-.25.15-.57.24-.73.45-.86,1.18-2.13.95-3.31.98-3.03.09-2.84-.23-2.83,3.05.02,12.96.03,25.93.03,38.89,0,9.75-.02,19.5-.04,29.24,0,.7.03,1.41-.04,2.11-.03.31-.24.61-.37.91-.12-.26-.31-.52-.33-.79-.12-1.5-.27-3.01-.28-4.51-.03-16.18-.06-32.36-.04-48.54,0-6.22.12-12.44.24-18.67.02-1.16-.31-1.67-1.5-1.64-1.4.03-2.81.04-4.2-.11-1.28-.13-1.9-1.51-1.3-2.66.05-.09.23-.15.35-.16,3.66-.06,3.65-.07,5.98-2.04.35-.3.87-.5,1.33-.54,2.16-.21,2.46-.42,2.86-2.33.17-.81.2-1.44-1.01-1.13-.25.06-.65-.49-.98-.76.35-.3.66-.68,1.06-.88.22-.11.6.14.87.07.32-.08.67-.27.86-.53.09-.13-.13-.7-.28-.74-1.25-.26-.74-.93-.63-1.75.16-1.25.05-2.58-.22-3.82-.09-.4-1.08-.89-1.62-.84-2.28.2-4.54.62-6.82.88-.31.04-.63,1.16-.91.08-.05-.2.51-.75.87-.84,2.02-.54,4.08-.95,6.1-1.51.66-.18,1.77.21,1.82-1.07.05-1.18-1.04-2.84-2.04-2.96-.89-.11-1.81-.01-2.71-.09-.4-.03-.77-.27-1.16-.42.35-.02.69-.04,1.04-.06.1,0,.2.02.3.02q2.46.05,2.63-2.48c.01-.19.12-.38.19-.57h0c2.11.95,2.65,3.13,3.5,4.95,1.19,2.53,1.59,5.28,2.09,8.06.65,3.58,1.24,7.07.97,10.69-.01.16-.03,1.47.06,1.64.1-.14.43-1.41.47-1.57.05-.19,0-.4,0-.6.01-11.56.03-23.12.03-34.67,0-3.28-.09-3.35-3.32-4.32-.1-.03-.18-.13-.27-.12-3.66.11-6.89-1.81-10.46-2.19-1.18-.12-2.33-.6-3.5-.85-2.13-.45-2.22-.36-2.22,1.78.01,8.04.03,16.08.03,24.12,0,1-.02,2.01-.09,3.01-.02.23-.26.45-.4.67-.13-.26-.29-.51-.38-.78-.06-.18-.04-.4-.04-.6,0-9.04-.04-18.09.06-27.13.02-1.37-.15-1.81-1.62-2.11-4.8-.96-9.54-2.22-14.32-3.29-1.16-.26-2.4-.19-3.59-.35-.98-.14-1.94-.4-2.92-.61-.14,1.17-.36,2.34-.39,3.52-.22,9.54-.4,19.09-.61,28.63-.02.9-.06,1.81-.2,2.7-.05.34-.39.63-.6.94-.12-.34-.32-.68-.34-1.03-.49-8.33-1.08-16.64-.23-24.99.29-2.79.14-5.62.28-8.43.07-1.34-.36-2.12-1.74-2.28-3.37-.39-6.74-.75-10.1-1.22-4.5-.63-8.99-1.33-13.49-2.02-.39-.06-.76-.27-1.15-.33-4.45-.68-4.42-.67-4.42,3.86.03,44.93.04,89.86.06,134.8,0,.4,0,.8,0,1.21.02,2.26.73,2.81,3.2,2.64,2.6-.18,5.21-.3,7.81-.4.33-.01.67.22,1,.34-.29.07-.57.18-.86.2-.7.05-1.41.03-2.11.1-1.03.1-2.05.26-3.08.39,1.01.39,2,.89,3.04,1.14,5.73,1.38,11.47,2.69,17.2,4.06,2.53.6,5.04,1.24,7.54,1.94,5.78,1.62,11.52,3.36,17.31,4.91,7.52,2.02,15.09,3.87,22.62,5.85,2.9.76,5.74,1.73,8.63,2.52,5.78,1.6,11.58,3.12,17.35,4.71,2.5.69,4.97,1.49,7.47,2.2,5.96,1.69,11.93,3.33,17.89,5.04,2.69.77,5.33,1.67,8.02,2.45,5.56,1.61,11.14,3.17,16.71,4.77,2.21.64,4.4,1.35,6.6,2.02,7.83,2.37,15.68,4.7,23.5,7.12,4.96,1.54,9.86,3.25,14.81,4.81,6.48,2.04,12.99,3.95,19.46,6,4.47,1.41,8.9,2.95,13.34,4.46,2.45.84,4.85,1.9,7.35,2.53,1.16.29,2.57,0,3.77-.36,7.55-2.26,15.07-4.62,22.6-6.94,5.26-1.62,10.5-3.29,15.78-4.8,5.18-1.48,10.42-2.78,15.63-4.16,2.41-.64,4.84-1.25,7.25-1.9,5.98-1.64,11.94-3.35,17.94-4.93,4.26-1.12,8.56-2.06,12.83-3.12.3-.08.54-.43.81-.65-.26-.13-.52-.32-.8-.37-2.95-.58-5.9-1.14-8.85-1.71-1.28-.25-2.54-.57-3.82-.81-7.67-1.49-15.34-2.99-23.01-4.44-6.49-1.23-13-2.41-19.5-3.6-6.5-1.2-12.99-2.4-19.49-3.59-6.7-1.23-13.4-2.45-20.1-3.67-6.6-1.2-13.2-2.4-19.8-3.6-6.6-1.2-13.2-2.41-19.81-3.62-6.6-1.21-13.2-2.42-19.8-3.62-6.69-1.22-13.38-2.44-20.08-3.63-6.91-1.23-13.82-2.38-20.72-3.64-6-1.1-12-2.23-17.97-3.49-1.37-.29-1.91.93-2.97,1.05.09.31.21.61.27.92.13.65-22.52-4.6-23.5-4.65"/>
  <path class="cls-1" d="m377.63,366.2c-.18.19-.39.33-.59.49-.04-.29-.12-.58-.12-.87"/>
  <path class="cls-1" d="m630.87,410.52c-.09-.17-.14-.45-.27-.49-3.21-1.04-6.41-2.08-9.64-3.06-.56-.17-1.2-.09-1.8-.09-.18,0-.36.13-.54.2.18.19.34.48.56.54,1.43.4,2.96.57,4.3,1.17,1.29.58,3.03.23,3.87,1.78-1-.08-2.04,0-2.98-.27-3.05-.87-6.11-1.77-9.09-2.87-1.38-.51-2.35-.86-2.99.88-.1.28-.9.3-1.37.45.13-2.45.13-2.46-1.85-3.14-2.41-.82-4.83-1.63-7.24-2.44,2.85-.2,5.41.89,8.01,1.8.28.1.68-.17,1.03-.26-.19-.2-.35-.51-.58-.58-2.24-.71-4.48-1.43-6.75-2.05-1.12-.3-2.29-.4-3.44-.58-.46-.32-.88-.76-1.4-.93-1.22-.41-2.49-.68-3.73-1.02-.18-.05-.33-.2-.49-.3.16-.1.32-.26.49-.28.29-.05.62-.08.9,0,3.83,1.03,7.65,2.14,11.49,3.1,3.99,1,3.7,2.36,3.7-2.69,0-25.62,0-51.25-.01-76.87,0-2.21-.09-4.42,0-6.62.05-1.4-.49-1.96-1.86-2.12-2.48-.29-4.96-.68-7.42-1.11-5.23-.91-10.45-1.87-15.66-2.82-.98-.18-1.95-.49-2.93-.64-4.65-.7-9.32-1.28-13.95-2.06-5.72-.96-11.42-2.07-17.13-3.15-1.09-.2-1.77.32-1.41,1.23.79,2.04.3,3.99-.19,5.89-.36,1.38.18,1.92,1.25,2.16,2.25.5,4.52.95,6.8,1.29,7.62,1.13,15.36,1.58,22.82,3.71,1.53.44,2.97,1.18,4.49,1.64,2.11.63,2.37.84,2.42,3.06.04,1.81,0,3.62,0,5.43,0,21.91-.02,43.81,0,65.72,0,.89.12,1.79.31,2.65.06.29.54.48.83.72-.29.32-.74.61-.83.98-.05.21.47.56.73.85-.15.09-.37.14-.44.27-.9,1.66-.74,2.21.99,2.83,1.4.5,2.87.82,4.28,1.29,4.82,1.59,9.62,3.24,14.45,4.8.74.24,1.59.13,2.38.18.5.29.96.69,1.49.85,5.54,1.63,11.1,3.21,16.65,4.84,6.03,1.77,12.06,3.55,18.08,5.35,8.61,2.58,17.21,5.19,25.81,7.77,5.25,1.58,10.51,3.14,15.76,4.73.55.17,1.08.44,1.6.72.55.3,1.06.67,1.59,1,.16-.63.35-1.25.48-1.89.31-1.57-.77-2.17-1.96-2.53-2.28-.7-4.61-1.27-6.9-1.94-6.2-1.81-12.4-3.63-18.59-5.47-2.77-.82-5.51-1.73-8.29-2.54-4.87-1.41-9.75-2.77-14.63-4.16-3.63-1.04-7.28-2.06-10.88-3.19-1.37-.43-2.64-1.16-3.95-1.75,1.23,0,2.47-.01,3.7-.02.06.18.08.49.19.52,3.38,1.06,6.77,2.12,10.16,3.14,3.76,1.13,7.54,2.23,11.31,3.31.65.19,1.36.22,2.04.28.17.01.35-.15.52-.23-.14-.13-.25-.32-.41-.37-3.19-1-6.38-2.02-9.59-2.96-3.5-1.03-7.02-2.02-10.55-2.96-1.22-.32-2.49-.44-3.74-.65Z"/>
  <path class="cls-1" d="m386.55,323.66c-.08-.17-.12-.46-.24-.5-3.31-1.06-6.63-2.09-9.95-3.13-1.9-.59-3.78-1.23-5.7-1.74-.54-.15-1.17.06-1.76.1.47.24.92.53,1.4.71.93.35,1.87.66,2.82.95,3.14.96,6.28,1.95,9.44,2.83,1.31.37,2.68.5,4.03.75.26.26.47.64.77.74,1.69.58,3.39,1.1,5.09,1.64,5.03,1.6,10.05,3.24,15.09,4.79,7.04,2.16,14.11,4.23,21.15,6.4,4.56,1.41,9.07,2.99,13.62,4.42,5.03,1.58,10.11,3.03,15.14,4.62,4.45,1.4,8.85,2.95,13.3,4.36.83.26,1.78.14,2.68.2,2.79,2.18,5.88,2.52,9.17,1.46,1.24-.4,2.42-.95,3.66-1.34,8.16-2.51,16.33-5,24.49-7.51.15-.05.25-.24.37-.36-.22-.14-.46-.41-.66-.38-.79.11-1.58.27-2.35.49-2.29.67-4.56,1.41-6.85,2.07-5.64,1.61-11.3,3.16-16.94,4.77-3,.86-5.89,2.48-9.14.82-.47-.24-1.18-.03-1.78-.03-.25-.26-.46-.66-.77-.76-3.49-1.16-6.99-2.27-10.49-3.4-6.72-2.19-13.42-4.45-20.17-6.57-7.02-2.21-14.09-4.28-21.13-6.45-4.66-1.44-9.27-3.01-13.94-4.43-5.43-1.66-10.87-3.26-16.33-4.82-1.31-.37-2.71-.47-4.07-.69Z"/>
  <path class="cls-1" d="m373.15,336.48c-.15-.46-1.05-.67-1.63-.98-.83-.45-1.21.32-1.79.62-.26.13-.99-.07-1.1-.31-.94-2.11-1.21-2.29-3.07-.98-1,.71-.7-.15-.68-.45.06-1.15-.46-1.58-1.57-1.71-1.44-.18-2.99-.28-4.25-.9-2.23-1.09-4.55-1.85-6.89-2.58-2.23-.7-3.23-.12-4.18,2.04-.74,1.69-.69,3.34.04,3.2,1.35-.25,1.54-1.52,1.56-2.57.03-1.68,1.81.53,1.83-.92,0-.13.26-.26.4-.39.1.22.3.47.27.67-.07.38-.16.88-.43,1.08-1.55,1.12-1.48,2.71-1.42,4.33.02.6.02,1.21-.01,1.81,0,.15-.17.29-.26.44-.12-.12-.34-.23-.35-.35-.02-.29.16-.61.09-.88-.15-.63-.4-1.23-.61-1.84-.46.34-.97.63-1.36,1.04-1.15,1.23-1.27,1.3-2.01-.38-.42-.95-.58-.61-1.08-.2-.71.59-1.46,1.14-2.25,1.61-.25.15-.83-.99-.97.08-.06.48.26,1.22.65,1.48.44.29,1.15.15,1.74.23,5.34.73,10.73,1.2,16,2.28,4.05.83,7.95,2.42,11.91,3.68.09.03.21.07.26.14.29.38.56.76.83,1.15-.37.14-.75.42-1.1.39-.58-.04-1.15-.27-1.72-.44-1.63-.49-3.22-1.13-4.88-1.45-4.12-.8-8.25-1.56-12.41-2.14-4.27-.59-8.56-1.19-12.85-1.36-8.04-.3-16.02.59-23.95,1.83.32-.32.59-.86.95-.94,2.53-.52,5.08-.95,7.63-1.39,4.04-.71,8.06-1.47,12.11-2.1,2.1-.33,2.29-.38,2.27-2.64-.02-3.11-.09-6.22-.14-9.33-.05-2.59-.27-2.84-2.66-3.59-4.47-1.39-8.93-2.78-13.38-4.23-5.4-1.76-10.79-3.55-16.16-5.4-1.03-.35-1.47-.34-1.46.88.03,7.32.04,14.64.02,21.96,0,1.04.3,1.64,1.33,2.03,2.13.82,4.15,2,6.33,2.61,1.28.36,1.49,1.11,1.82,2.03-1.02-.41-2.04-.82-3.06-1.24-1.16-.48-1.14-.47-1.91.71-.11.17-.49.3-.7.25-.38-.08-.74-.3-1.09-.49-1.33-.71-2.02.21-2.67,1.08-.81,1.09.29,1.6.82,2.21.8.92,1.76,1.15,2.97.58.78-.36,1.87-.44,1.09.97-.53.97.08,1.32.65,1.57,1.28.55,2.59,1.14,3.95,1.38,1.58.28,3.17.44,4.7,1.02,1.11.42,2.31.74,3.5.85,4.4.39,8.8.88,13.21.96,6.21.11,12.43-.09,18.65-.24.72-.02,1.73-.39,2.07-.93.92-1.5,2.45-1.23,3.73-1.56,1.13-.29.21.36.15.62-.07.32-.11.65-.17.98.38,0,.86.13,1.11-.06.55-.41,1.03-.94,1.45-1.49.77-1.01.76-.36.88.33.02.11.62.23.9.16.72-.19,1.39-.55,2.11-.72,1.82-.42,3.67-.69,5.47-1.18,1.96-.53,2.84-1.63,2.22-3.17-.52-1.3.18-1.64.89-2.05,1.2-.7,1.5-1.72,1.46-3-.02-.88.1-1.76.15-2.64.13.91.24,1.82.4,2.72.13.72.32,1.42.48,2.13.27-.69.55-1.39.82-2.08.09-.22.17-.44.26-.65.05.08.11.16.14.25.53,1.45.75.37,1.26-.06.56-.48,1.36-.68,2.05-1"/>
  <path class="cls-1" d="m388.69,365.23c.79-.1,1.57-.29,2.35-.43,2.16-.38,4.34-.73,6.49-1.15,2.05-.4,4.1-.32,6.17-.25,3.18.11,6.38-.05,9.56.09,4.29.19,5.05-.44,4.01-4.74-.4-1.64.58-2.9.28-4.36-.03-.14.06-.29.09-.44.08.17.17.34.22.52.17.59.46,1.19.45,1.79-.05,2.26-.25,4.51-.28,6.77,0,.35.47.96.81,1.02,2.89.56,5.8,1.04,8.71,1.47.25.04.84-.51.86-.81.21-3.39.31-6.79.51-10.19.07-1.26-.45-1.75-1.67-1.98-1.8-.34-3.57-.83-5.33-1.37-2.22-.68-4.47-1.31-6.58-2.24-2-.87-3.36-.13-4.66,1.22-.27.28-.39.7-.65,1-.14.17-.42.22-.63.32,0-.25-.08-.57.04-.73.46-.63,1.02-1.18,1.49-1.8.63-.84.38-1.55-.66-1.67-1.28-.15-2.59-.14-3.88-.2l.09.08c-.19-1.28-1.27-1.54-2.23-1.64-3.36-.36-6.33-1.99-9.55-2.81-1.34-.34-2.64-.82-3.96-1.25-1.01-.33-2-.75-3.03-1.02-1.75-.45-3.43-1.73-5.34-.49-.36-.55-.61-1.38-1.11-1.59-1.73-.72-3.56-1.21-5.35-1.81-1-.33-1.71.24-1.83,1.02"/>
  <path class="cls-1" d="m692.43,378.15h-.03c0-15.37,0-30.75,0-46.12,0-.9.02-1.81,0-2.71-.01-.72-.34-.89-1.1-1.01-6.12-.94-12.24-1.94-18.34-3.01-4.14-.73-8.24-1.62-12.36-2.44-1.57-.32-3.13-.72-4.71-.97-4.34-.7-8.7-1.29-13.04-2.04-4.54-.78-9.05-1.68-13.57-2.53-4.33-.81-8.66-1.57-12.97-2.46-3.31-.68-3.56-.58-3.56,2.89-.02,27.74-.02,55.47-.03,83.21,0,.3.03.61,0,.9-.16,1.36.52,1.98,1.79,2.31,3.57.91,7.13,1.86,10.67,2.88,6.22,1.79,12.42,3.61,18.61,5.49,6.76,2.05,13.48,4.22,20.23,6.28,5.03,1.54,10.11,2.93,15.13,4.5,3.98,1.24,7.94,2.6,11.86,4.03,1.17.42,1.44.12,1.43-.95,0-.7,0-1.41,0-2.11,0-15.38,0-30.75,0-46.13Z"/>
  <path class="cls-1" d="m692.43,281.16c0-14.27.02-28.55-.01-42.82,0-3.85.49-3.38-3.33-3.38-24.23-.03-48.46-.06-72.69-.06-4.16,0-3.71-.65-3.71,3.63,0,18.5.03,36.99.05,55.49,0,1.89-.07,3.72-.77,5.6-.55,1.49-.65,3.56-.01,4.94.53,1.15.71,2.16.77,3.31.04.8,0,1.61.01,2.41q.02,2.69,2.76,3.26c.29.06.59.11.89.16,5.73.94,11.46,1.84,17.18,2.84,5.03.88,10.04,1.86,15.05,2.81.88.17,1.74.5,2.63.64,4.35.69,8.71,1.27,13.04,2.03,4.53.79,9.04,1.75,13.56,2.62,3.73.71,7.49,1.32,11.2,2.11,3.38.72,3.37.8,3.37-2.77,0-14.27,0-28.55,0-42.82Z"/>
  <path class="cls-1" d="m695.82,276.71c-.09,0-.17,0-.26,0,0,3.72-.01,7.43,0,11.15.06,13.06.14,26.13.19,39.19.05,14.98.11,29.95.08,44.93-.03,13.67-.16,27.33-.28,41-.03,3.52-.15,7.03-.19,10.55,0,.34.2.68.3,1.02.31-.24.78-.43.89-.75.33-.92.62-1.89.72-2.86.11-1.09-.05-2.21-.05-3.31-.03-32.77-.07-65.53-.09-98.3-.02-41.51-.03-83.02,0-124.53.02-20.3.14-40.6.22-60.91,0-.6,0-1.21.04-1.81.01-.22.09-.44.15-.66.02.2.06.39.07.59.01.6.02,1.21.02,1.81.04,22.11.12,44.22.12,66.33.02,70.15.01,140.31,0,210.46,0,3.22-.04,6.43-.03,9.65,0,.32.25.67.48.92.05.06.57-.16.73-.37,1.55-1.93,3.05-3.9,4.62-5.81.91-1.11.92-2.34.89-3.69-.16-7.03-.35-14.07-.35-21.1,0-10.85.25-21.71.25-32.56,0-50.86-.07-101.71-.06-152.57,0-22.01.14-44.02.23-66.03,0-.96.14-1.92.21-2.88.05,1,.14,2,.14,3,.04,28.85.08,57.69.09,86.54.02,59.3.03,118.6.03,177.9,0,2.51-.06,5.03-.04,7.54,0,.44.25.87.38,1.3.4-.27.95-.45,1.19-.82,1.31-2.09,3.12-3.76,4.69-5.63,2.22-2.64,4.2-5.53,6.66-7.93,1.25-1.22,1.67-2.3,1.65-3.88-.09-6.83-.16-13.67-.16-20.5,0-43.62,0-87.24.02-130.86,0-7.74.11-15.48.05-23.21-.05-7.52-.35-15.04-.36-22.56-.01-10.65.13-21.3.22-31.95.06-6.63.12-13.27.22-19.9.02-1.56.16-3.1-2.02-3.3-.17-.02-.32-.22-.48-.33-3.58-2.23-7.14-4.49-10.74-6.68-3.14-1.92-6.32-3.78-9.5-5.64-.39-.23-.87-.31-1.31-.46-.1.47-.31.93-.29,1.4.18,5.22.57,10.44.58,15.65.05,43.62.03,87.24.03,130.86Z"/>
  <path class="cls-1" d="m562.02,171s.06,0,.08,0c0-7.53,0-15.06,0-22.59,0-1.95-.21-2.14-1.98-1.88-5.75.83-11.49,1.67-17.25,2.43-3.27.44-6.57.69-9.85,1.11-6.45.83-12.9,1.75-19.35,2.57-3.27.42-6.57.67-9.85,1.08-4.07.51-8.13,1.11-12.2,1.64-1.76.23-1.98.42-1.95,2.27.03,1.81.14,3.61.14,5.42.02,11.95.04,23.89,0,35.84,0,1.33.43,1.84,1.7,1.77,1.9-.1,3.86.06,5.7-.31,4.52-.91,9.23.07,13.67-1.48,8.03-.07,16-.87,23.98-1.63,7.58-.72,15.22-.72,22.83-1.04.7-.03,1.42.07,2.11-.02,1.49-.2,2.2-1.04,2.21-2.6.01-7.53,0-15.06,0-22.59Z"/>
  <path class="cls-1" d="m611.02,166.24s.1,0,.15,0c0-7.53,0-15.07,0-22.6,0-.8-.06-1.61-.04-2.41.04-1.25-.62-1.55-1.72-1.39-2.37.35-4.75.69-7.12,1.02-1.39.19-2.79.32-4.17.53-5.14.79-10.26,1.66-15.41,2.4-6.25.9-12.51,1.7-18.77,2.52-.88.12-1.2.47-.97,1.4.35,1.44.82,2.9.83,4.36.06,12.86.04,25.71.02,38.57,0,1.09-.14,2.2-.36,3.27-.32,1.53-.38,1.49,1.29,1.45,3.11-.08,6.23-.08,9.34-.23,3.06-.15,6.11-.42,9.17-.67,8.39-.69,16.79-1.38,25.18-2.12,2.56-.22,2.58-.3,2.58-2.9.01-7.73,0-15.47,0-23.2Z"/>
  <path class="cls-1" d="m243.45,286.71s.07,0,.11,0c0,.8.08,1.62-.02,2.41-.17,1.36.37,1.89,1.7,2.21,2.13.5,4.19,1.29,6.27,1.96,5.04,1.62,10.07,3.24,15.11,4.85,7.03,2.25,14.08,4.48,21.1,6.76,4.18,1.36,8.32,2.83,12.5,4.18,6.36,2.04,12.75,3.98,19.11,6.04,4.65,1.51,9.24,3.19,13.88,4.7,7.4,2.4,14.84,4.7,22.25,7.06,2.19.69,4.35,1.45,6.54,2.13,4.66,1.45,9.34,2.84,13.99,4.32,4.86,1.54,9.68,3.17,14.54,4.7,7.23,2.27,14.48,4.47,21.71,6.73,4.29,1.34,8.54,2.79,12.84,4.11,6.58,2.02,13.19,3.93,19.76,5.97,4.96,1.54,9.87,3.24,14.82,4.79,2.57.8,5.18,1.48,7.8,2.09.67.15,1.68.04,2.17-.37,2.29-1.93,4.44-4.01,6.66-6.03.83-.76.2-.89-.41-1.09-2.27-.76-4.52-1.55-6.8-2.3-4.75-1.56-9.48-3.15-14.25-4.64-6.57-2.04-13.18-3.96-19.75-6-4.96-1.54-9.86-3.28-14.82-4.8-6.68-2.04-13.42-3.89-20.1-5.94-6.97-2.13-13.89-4.41-20.84-6.61-2.19-.69-4.38-1.37-6.58-2.02-4.88-1.45-9.77-2.84-14.64-4.33-4.97-1.52-9.9-3.15-14.86-4.66-7.64-2.32-15.3-4.57-22.94-6.88-4.3-1.3-8.57-2.69-12.86-3.99-7.54-2.28-15.1-4.54-22.65-6.78-4.97-1.48-9.97-2.87-14.94-4.38-4.87-1.48-9.71-3.08-14.57-4.6-2.76-.86-5.53-1.69-8.31-2.48-1.04-.29-2.12-.43-3.18-.64-.12,1.18-.24,2.37-.36,3.55Z"/>
  <path class="cls-1" d="m478.89,447.18c0-29.35,0-58.7,0-88.05,0-1.01.05-2.01.02-3.01-.01-.39-.18-.77-.27-1.15-.44.19-.98.28-1.29.59-2.43,2.39-4.76,4.88-7.24,7.2-1.06,1-1.39,2.02-1.36,3.43.17,8.74.35,17.48.35,26.23.03,42.82,0,85.64-.02,128.46,0,3.11.03,6.24-.21,9.34-.12,1.56.46,2.4,1.62,3.21,1.96,1.36,3.84,2.83,5.76,4.25.78.57,1.57,1.13,2.35,1.7.1-.97.28-1.94.28-2.92.02-29.75.01-59.51,0-89.26Z"/>
  <path class="cls-1" d="m452.74,108.37c-.07,1.38-.19,2.39-.15,3.39.07,1.87.47,2.17,2.19,1.69,1.54-.43,3.05-1.02,4.6-1.39,5.73-1.36,11.5-2.58,17.22-4,6.3-1.57,12.55-3.31,18.83-4.95,2.61-.68,5.23-1.29,7.85-1.93,5.91-1.43,11.82-2.84,17.72-4.31,3.78-.94,7.53-2,11.3-2.94,5.8-1.45,11.62-2.84,17.43-4.26,4.17-1.02,8.34-2.04,12.51-3.07.44-.11.84-.33,1.26-.5-.35-.42-.62-1.03-1.07-1.22-3.84-1.65-7.71-3.22-11.56-4.84-2.55-1.08-5.05-1.61-7.52.24-.54.4-1.24.66-1.9.83-5.6,1.38-11.21,2.68-16.8,4.1-3.76.95-7.46,2.13-11.21,3.08-5.49,1.39-11.02,2.63-16.51,4.02-6.87,1.73-13.72,3.54-20.57,5.34-6.86,1.81-13.74,3.53-20.55,5.53-3.24.95-3.27.64-3.08,4.07.03.5,0,1,0,1.12Z"/>
  <path class="cls-1" d="m544.6,60.91c0-6.5-.07-10.92.02-15.34.06-2.91-1.29-4.96-3.68-6.26-6.64-3.62-13.34-7.11-20.03-10.65-1.32-.7-2.66-1.35-3.97-2.05-.91-.48-1.38-.56-1.34.8.13,4.31.25,8.63.15,12.94-.15,6.52-.44,13.04-.78,19.55-.12,2.25,1.2,3.53,2.72,4.68.6.46,1.5.5,2.24.8,7.14,2.99,14.28,6.01,21.43,8.98,2.22.92,2.67.65,2.78-1.71.22-4.61.36-9.23.46-11.76Z"/>
  <path class="cls-1" d="m331.64,413.12s-.1,0-.15,0c-.32-3.4-.79-6.79-.94-10.19-.28-6.42-.37-12.85-.54-19.28-.1-3.78-.58-4.54-4.17-5.52-3.8-1.04-7.11-3-10.39-5.07-3.91-2.47-7.13-5.7-10.18-9.13-.22-.24-.53-.39-.81-.59-.13.26-.31.5-.37.77-.07.29-.04.6-.04.9.01,11.75.05,23.51.02,35.26,0,1.4.55,2.22,1.68,2.89,5.8,3.47,11.59,6.96,17.37,10.47,2.45,1.49,4.9,2.99,7.31,4.54.82.53,1.14.13,1.18-.54.08-1.5.02-3.01.02-4.52Z"/>
  <path class="cls-1" d="m303.44,325.52h-.05c0-3.61-.03-7.23.01-10.84.01-1.12-.21-1.65-1.49-2.06-5.69-1.82-11.32-3.87-16.96-5.83-5.27-1.83-10.54-3.66-15.8-5.51-1.16-.41-1.45.09-1.42,1.12.05,2.11.11,4.22.11,6.32-.02,4.52-.05,9.04-.13,13.55-.03,1.37.35,2.3,1.74,2.78,1.97.67,3.9,1.46,5.85,2.16,3.83,1.38,7.69,2.66,11.48,4.11,5.1,1.94,10.17,3.97,15.23,6.02,1.13.46,1.43.09,1.43-.98-.01-3.61,0-7.23,0-10.84Z"/>
  <path class="cls-1" d="m388.31,282.77s0,.3,0,.61c0,2.04,0,2,2.02,2.37,7.78,1.42,15.54,2.9,23.32,4.3,7.39,1.33,14.79,2.58,22.18,3.88,1.28.22,2.55.53,3.83.75,5.03.83,10.07,1.61,15.1,2.47,5.42.94,10.83,1.99,16.25,2.92,6.31,1.08,12.65,2.03,18.95,3.15,3.4.6,3.39.7,3-2.73-.03-.29.07-.75-.07-.85-1.4-.94-.57-1.59.07-2.57.84-1.27.26-2.15-1.27-2.4-5.73-.94-11.46-1.87-17.18-2.81-1.28-.21-2.55-.55-3.84-.73-5.15-.69-10.32-1.27-15.47-2.03-5.54-.81-11.07-1.76-16.59-2.66-1.38-.23-2.75-.56-4.14-.74-5.35-.71-10.72-1.31-16.07-2.07-5.65-.81-11.27-1.77-16.91-2.63-3.16-.49-6.35-.81-9.5-1.4-3.61-.68-3.59-.78-3.71,3.19Z"/>
  <path class="cls-1" d="m491.5,34.42s-.02,0-.03,0c0,5.73,0,11.46,0,17.19,0,.91-.54,2.32,1.02,2.3,1.44-.02.75-1.41.74-2.14-.15-9.96.41-19.88,1.2-29.79.03-.4.05-.81.14-1.19.05-.21.26-.38.39-.56.07.18.2.36.21.54.03.6.04,1.2.02,1.81-.29,9.43-.59,18.86-.89,28.29-.01.4-.05.8-.08,1.2-.19,2.64.08,2.85,2.64,3.83,3.99,1.52,7.95,3.13,11.83,4.9,1.17.53,1.83.46,2.55-.48.74-.96,1.25-1.91,1.24-3.24-.05-9.54.04-19.09-.07-28.63-.02-1.61-.67-3.28-1.37-4.77-.15-.33-1.73.03-2.66.03-.18,0-.35-.17-.53-.26-1.71-.82-3.44-1.59-5.11-2.47-3.11-1.64-6.18-3.37-9.28-5.03-1.92-1.03-1.96-1-1.97,1.3-.02,5.73,0,11.46,0,17.19Z"/>
  <path class="cls-1" d="m567.33,67.02c.07,0,.13,0,.2,0,0-3.51-.14-7.04.06-10.54.11-2-.83-3.2-2.17-4.3-.69-.57-1.49-1.02-2.29-1.45-3.42-1.84-6.85-3.66-10.28-5.46-1.4-.73-2.79-1.49-4.25-2.09-1.29-.53-1.6-.29-1.68,1.05-.1,1.7-.13,3.41-.2,5.12-.31,8.02-.65,16.04-.92,24.07-.07,1.91,1.04,3.4,2.77,4.11,5.15,2.12,10.3,4.25,15.45,6.39,1.98.82,2.96.28,3.27-1.88.07-.49.05-1,.05-1.5,0-4.51,0-9.02,0-13.53Z"/>
  <path class="cls-1" d="m590.23,80.22s.09,0,.14,0c0-4.22-.03-8.43.02-12.65.01-1.41-.13-2.39-1.79-2.96-1.67-.57-3.06-1.89-4.68-2.64-3.44-1.61-6.3-4.49-10.34-4.77-.14,0-.37-.18-.38-.29-.1-1.47-1.57-1.36-2.37-1.97-1.13-.87-1.78-.61-2.11.8-.32,1.35-.39,2.78-.39,4.17-.02,7.53.03,15.06,0,22.59,0,2.52.37,3.18,2.82,4.23,2.02.86,4.05,1.69,6.07,2.55,3.67,1.56,7.33,3.15,11.02,4.68,1.95.81,1.99.77,2-1.39.02-4.12,0-8.23,0-12.35Z"/>
  <path class="cls-1" d="m549.49,310.29c-.02-2.47-.02-2.45-2.55-3.11-.76-.2-1.46-.67-2.22-.79-1.13-.18-2.26-.1-2.54,1.4-.07.35-.25.69-.38,1.03-.09-.38-.2-.75-.28-1.13-.08-.38,0-.89-.22-1.13-.98-1.06-.19-.98.57-1,2-.03,3.94.09,5.83.94.65.29,1.67.25,1.75-.97.06-.93.15-1.68-1.21-1.89-5.14-.8-10.25-1.75-15.37-2.65-1.58-.28-3.14-.63-4.72-.86-4.84-.71-9.7-1.3-14.54-2.07-5.92-.95-11.82-2.05-17.74-3.04-.41-.07-1.05.06-1.3.34-.66.74-.2,2.67.78,3.03.83.31,1.53.04.04.6-1.71.64-.92,2.46-1.1,3.75-.18,1.34,1.18,1.22,1.93,1.36,3.24.61,6.52,1.05,9.77,1.61,5.23.89,10.45,1.82,15.67,2.73,1.28.23,2.55.51,3.84.71,5.04.79,10.08,1.54,15.12,2.33,2.47.39,4.93.89,7.4,1.29.93.15,1.58-.16,1.47-1.29-.04-.4,0-.8,0-1.2Z"/>
  <path class="cls-1" d="m403.02,460.07c.33.18.54.24.67.38,1.43,1.54,1.98-.09,2.78-.78.14-.12.16-.36.24-.54-.25-.07-.51-.22-.75-.2-3.32.27-6.5.02-9.29-2.08-.21-.16-.76-.24-.8-.17-.17.32-.34.73-.29,1.07.33,2.26,2.08,3.59,3.6,4.96,1.65,1.49,2.43,1.07,3.01-1.21.13-.52.54-.97.82-1.44Z"/>
  <path class="cls-1" d="m481.5,18.45c-.08,0-.16,0-.25.01.21,3.99.41,7.98.64,11.97.02.39.15.78.22,1.17.07-.37.18-.73.2-1.1.34-6.18-.11-12.41,1.14-18.54.09-.42-.09-1-.35-1.35-.25-.34-.76-.48-1.16-.7-.15.35-.42.69-.42,1.04-.04,2.5-.02,5-.02,7.5Z"/>
  <path class="cls-1" d="m528.91,83.04c.64-.04,1.16.02,1.64-.1,2.69-.67,5.38-1.35,8.05-2.1,1.33-.37,2.62-.9,3.92-1.39.23-.09.4-.33.6-.5-.32-.14-.69-.45-.96-.38-4.41,1.2-8.8,2.43-13.19,3.69-.29.08-.52.38-.78.58.28.08.56.15.72.2Z"/>
  <path class="cls-1" d="m336.02,424.89c0-.78.09-1.12-.02-1.36-.31-.68-.65-1.82-1.1-1.88-.76-.11-1.62.47-2.44.76.37.48.79.93,1.07,1.46.17.3.19.73.14,1.09-.15,1.28,1.14,1.12,1.65,1.73.22-.56.46-1.11.67-1.68.06-.18.03-.39.01-.11Z"/>
  <path class="cls-1" d="m387.55,408.85c.93-.21,1.81-.34,2.64-.63.3-.1.48-.57.72-.87-.3-.17-.58-.4-.9-.49-.67-.17-1.35-.32-2.04-.36-.52-.03-1.23-.05-1.53.26-.36.36-.38,1.06-.55,1.61.56.16,1.11.32,1.66.47Z"/>
  <path class="cls-1" d="m391.49,278.56c1.8-.45,3.6-.89,5.4-1.34.18-.05.35-.16.52-.24-.2-.11-.41-.32-.59-.31-1.86.16-3.73.31-5.58.57-.79.11-1.54.5-2.31.76.84.18,1.67.36,2.57.56Z"/>
  <path class="cls-1" d="m344.14,330.86c.28-.31.54-.56.75-.84.34-.44.69-.89.97-1.37.19-.32.27-.71.41-1.07-.47-.13-.95-.41-1.4-.36-1.12.13-2,1.96-1.52,3.08.09.21.43.31.8.55Z"/>
  <path class="cls-1" d="m220.52,365.3c.52,0,.72-.03.92,0,.27.05.54.15.81.22-.21.31-.36.74-.66.91-.51.28-1.11.4-1.67.59-.83.28-1.65.58-2.48.85-.76.24-1.52.44-2.29.65.75.1,1.5.2,2.25.32.18.03.35.16.53.25-.23.15-.43.39-.68.44-4.88,1-9.77,1.97-14.66,2.97-4.7.97-9.39,1.98-14.1,2.94-4.21.85-8.42,1.65-12.63,2.48-.98.19-1.96.44-2.94.64-7.24,1.53-14.48,3.08-21.73,4.59-5.87,1.22-11.76,2.4-17.64,3.61-5.87,1.2-11.74,2.42-17.62,3.63-5.98,1.23-11.96,2.45-17.93,3.67-5.78,1.18-11.56,2.4-17.35,3.53-6.87,1.34-13.77,2.55-20.63,3.94-4.8.97-9.56,2.17-14.35,3.21-4.69,1.02-9.4,1.94-14.09,2.95-3.33.72-6.68,1.36-9.93,2.32-1.68.5-1.71-.83-2.02-1.49-.44-.93.52-1.35,1.29-1.51,1.17-.24,2.38-.31,3.56-.55,5.29-1.07,10.58-2.15,15.86-3.28,4.6-.99,9.17-2.1,13.78-3.07,3.91-.83,7.85-1.51,11.76-2.33,4.41-.92,8.79-1.95,13.2-2.88,4.2-.89,8.42-1.7,12.63-2.56,2.84-.58,5.68-1.14,8.5-1.78,4.67-1.07,9.33-2.23,14-3.29,2.04-.46,4.13-.72,6.18-1.14,5.88-1.21,11.75-2.43,17.62-3.69,6.65-1.43,13.28-2.93,19.93-4.36,5.77-1.24,11.55-2.39,17.33-3.62,8.31-1.77,16.61-3.62,24.93-5.35,6.27-1.31,12.56-2.49,18.84-3.7.59-.11,1.2-.09,1.49-.12Z"/>
  <path class="cls-1" d="m64.08,139.12c3.71.44,7.49.89,11.28,1.35.7.09,1.38.27,2.08.35,5.68.6,11.37,1.21,17.05,1.78,3.29.33,6.6.53,9.88.9,7.77.87,15.53,1.86,23.31,2.7,6.88.74,13.77,1.31,20.65,2.01,2.49.25,4.97.66,7.46.99,6.16.81,12.31,1.65,18.48,2.41,3.38.42,6.79.61,10.17,1.04,6.76.85,13.51,1.8,20.27,2.67,1.37.18,1.15.38.39,1.32-.53.65-.51,1.86-.51,2.82.03,10.05.14,20.1.15,30.15.03,36.48.04,72.97.03,109.45,0,5.81-.42,11.63-.18,17.42.14,3.26-.42,6.61.71,9.82.38,1.09-.81,1.67-1.27,1.47-1.91-.83-3.54.36-5.28.51-3.89.33-7.75.99-11.61,1.56-6.05.89-12.08,1.87-18.14,2.7-5.46.75-10.94,1.33-16.4,2.01-.99.12-1.96.43-2.95.58-6.23.98-12.47,1.96-18.71,2.9-7.92,1.2-15.84,2.4-23.76,3.53-5.15.73-10.33,1.33-15.49,2.02-1.29.17-2.56.51-3.84.72-5.53.92-11.06,1.88-16.6,2.71-5.05.75-10.12,1.33-15.18,2.03-1.29.18-2.55.53-3.84.75-5.13.89-10.26,1.77-15.39,2.63-3.75.63-7.5,1.21-11.26,1.79-.24.04-.5-.15-.76-.23.16-.25.25-.59.48-.74.39-.26.84-.52,1.3-.59,5.63-.93,11.27-1.81,16.89-2.74,4.93-.82,9.85-1.78,14.79-2.54,4.94-.76,9.92-1.33,14.87-2.02,1.49-.21,2.95-.55,4.43-.8,5.33-.89,10.66-1.84,16.01-2.63,5.15-.76,10.32-1.33,15.48-2.02,1.59-.21,3.15-.58,4.74-.84,5.34-.86,10.67-1.78,16.02-2.54,5.35-.76,10.73-1.34,16.09-2.05,1.99-.26,3.96-.65,5.94-.97,5.14-.82,10.28-1.7,15.43-2.43,5.35-.76,10.73-1.35,16.09-2.05,1.79-.24,3.55-.67,5.34-.91,4.27-.57,8.55-1.08,12.82-1.63,2.18-.28,2.2-.31,2.21-2.65.02-7.44,0-14.87,0-22.31.01-47.14.03-94.27.04-141.41,0-.6-.07-1.22.01-1.81.21-1.53-.38-2.13-1.94-2.28-4.08-.41-8.15-.99-12.22-1.51-6.86-.88-13.72-1.79-20.58-2.62-3.28-.4-6.59-.6-9.87-.99-7.17-.85-14.32-1.79-21.49-2.62-3.98-.46-7.99-.7-11.98-1.15-6.97-.78-13.93-1.69-20.91-2.47-3.89-.43-7.79-.67-11.68-1.09-7.68-.82-15.35-1.72-23.03-2.54-1.59-.17-3.21-.1-4.82-.19-.9-.05-1.82-.09-2.67-.33-.36-.1-.59-.68-.87-1.05.35-.11.69-.28,1.05-.33.39-.06.8-.01,1.29-.01Z"/>
  <path class="cls-1" d="m81.25,202.75c-11.25-.13-22.51-.25-33.76-.38-.6,0-1.21.04-1.81-.02-1.38-.14-2.02.34-1.96,1.84.06,1.7-.03,3.42-.16,5.12-.05.64-.37,1.26-.57,1.89-.09-.59-.24-1.17-.25-1.76-.04-1.81-.1-3.62-.01-5.43.07-1.36-.52-1.68-1.76-1.71-10.95-.3-21.89-.64-32.84-.97-.9-.03-1.81-.04-2.71-.1-.17-.01-.33-.2-.5-.31.17-.1.33-.28.5-.29.8-.04,1.61-.06,2.41-.05,10.65.07,21.31.15,31.96.22.4,0,.81-.02,1.21.02,1.3.11,1.72-.47,1.72-1.76-.03-8.24-.04-16.48.03-24.72.01-1.5-.61-1.87-1.95-1.93-5.52-.22-11.03-.52-16.55-.81-.38-.02-.75-.15-1.13-.23.39-.24.77-.63,1.19-.69.79-.11,1.6-.06,2.41,0,4.21.26,8.42.52,12.63.82,3.37.24,3.37.26,3.38-3.02.01-4.42,0-8.84.03-13.27,0-.35.21-.7.33-1.06.14.36.39.72.4,1.09.09,4.32.14,8.64.2,12.96,0,.7.02,1.41.04,2.11.03.82.41,1.32,1.28,1.33.2,0,.4,0,.6.02,7.42.35,14.84.72,22.25,1.06,6.52.3,13.05.49,19.56.87,7.02.41,14.02,1,21.03,1.51.4.03.8.05,1.2.06,9.83.43,19.67.83,29.5,1.33,2.09.11,2.78-.22,2.72-2.65-.11-4.21.22-8.43.39-12.65.01-.3.21-.6.32-.9.06.29.16.58.16.87.07,3.72.12,7.44.18,11.15.01.9.03,1.81.02,2.71-.01,1.36.6,2,2.01,1.98,2.21-.03,4.43-.03,6.63.1,6.21.37,12.42.81,18.63,1.23.29.02.58.13.87.2-.33.09-.67.28-1,.27-6.22-.14-12.45-.28-18.67-.46-2.21-.06-4.42-.19-6.62-.37-1.26-.1-1.88.26-1.87,1.62.03,7.24.05,14.47.03,21.71,0,1.49.76,1.86,2.08,1.87,4.42.03,8.85.08,13.27.22,7.43.24,14.86.55,22.29.84.2,0,.41,0,.6.03.29.05.58.13.86.2-.29.12-.58.34-.87.34-7.03-.06-14.07-.12-21.1-.24-5.02-.08-10.05-.27-15.07-.34-1.92-.03-1.99.05-2.01,2.07-.06,4.72-.04,9.45-.07,14.17,0,.9-.04,1.81-.11,2.71-.02.19-.25.37-.39.55-.09-.17-.25-.33-.27-.5-.14-1.6-.35-3.2-.37-4.8-.07-3.92-.04-7.84-.09-11.76-.03-2.42-.06-2.41-2.57-2.47-19.29-.4-38.58-.81-57.87-1.21,0-.08,0-.15,0-.23Zm-37.57-16.16h.02c0,3.42-.02,6.84,0,10.25.03,4.33.05,4.32,4.51,4.42,14.07.32,28.14.68,42.2.96,16.18.32,32.36.58,48.54.84,2.64.04,2.77-.06,2.79-2.64.05-6.83.06-13.66.07-20.49,0-1.86-.1-2.01-2.03-2.14-4.31-.29-8.62-.52-12.93-.73-2.21-.11-4.43-.04-6.63-.19-7.21-.48-14.42-1.1-21.64-1.52-7.52-.44-15.05-.72-22.57-1.06-2.51-.11-5.02-.17-7.53-.31-7.52-.41-15.03-.88-22.54-1.27-2.19-.11-2.25.03-2.25,2.42,0,3.82,0,7.64,0,11.46Z"/>
  <path class="cls-1" d="m470.86,145.19c-.94,0-1.25.04-1.54-.01-.23-.05-.43-.22-.65-.34.19-.07.37-.16.56-.19,4.03-.67,8.08-1.25,12.1-2,5.41-1.01,10.77-2.21,16.18-3.22,4.32-.8,8.68-1.42,13.02-2.15,1.28-.22,2.55-.54,3.83-.78,8.07-1.51,16.13-3.02,24.21-4.5,6.79-1.24,13.6-2.42,20.4-3.62,6.8-1.2,13.6-2.41,20.4-3.61,6.8-1.2,13.6-2.42,20.39-3.62,6.8-1.2,13.59-2.44,20.4-3.56,2.76-.46,5.58-.58,8.35-.98,1.75-.25,3.46-.78,5.2-1.12,4.32-.86,8.64-1.69,12.97-2.53,4.52-.87,9.03-1.79,13.56-2.58,4.43-.77,8.89-1.37,13.34-2.08,1.28-.21,2.55-.55,3.83-.8,4.52-.88,9.02-1.81,13.56-2.59,4.33-.75,8.7-1.34,13.04-2.04.99-.16,1.95-.49,2.93-.68,4.91-.94,9.83-1.88,14.75-2.78,6.69-1.22,13.39-2.39,20.08-3.58,3.55-.63,7.08-1.31,10.64-1.85,1.01-.15,2.09.15,3.14.24-1.03.46-2.03,1.08-3.11,1.33-1.74.41-3.55.55-5.32.85-5.82.97-11.65,1.9-17.46,2.95-5.51,1-10.99,2.18-16.5,3.18-4.43.8-8.88,1.44-13.32,2.18-1.28.21-2.55.53-3.82.78-4.62.89-9.23,1.82-13.86,2.63-4.33.75-8.69,1.36-13.04,2.06-1.08.18-2.14.51-3.22.72-4.72.92-9.42,1.89-14.16,2.7-6.01,1.03-12.06,1.84-18.07,2.9-4.12.72-8.19,1.77-12.31,2.53-4.13.76-8.29,1.33-12.44,2.01-.99.16-1.95.46-2.94.63-5.82,1.01-11.64,1.97-17.46,3.02-5.32.96-10.62,2.05-15.94,3.01-4.73.85-9.47,1.59-14.2,2.4-1.18.2-2.35.52-3.53.75-4.72.9-9.44,1.82-14.17,2.66-6.99,1.25-14,2.46-20.99,3.67-6.9,1.2-13.8,2.42-20.71,3.56-5.92.98-11.86,1.86-17.78,2.81-2.96.47-5.9,1.02-8.85,1.51-.69.12-1.4.14-1.46.14Z"/>
  <path class="cls-1" d="m460.29,325.82q-.09,2.06-2.06,1.91c-.2-.02-.39-.09-.58-.14-1.12-.31-1.96,1.45-3.13.48-1.17-.97-2.24.15-3.37.07-1.08-.08-2.18,0-3.27.05-1.2.06-2.4.22-3.6.25-6.12.11-12.25.25-18.37.25-2.9,0-5.8-.48-8.69-.43-1.66.03-2.31-.84-2.83-2.04-.78-1.81-.83-3.71-.38-5.61.51-2.13,1.12-4.25,1.69-6.36.08-.29.16-.61.35-.82.39-.41.85-.75,1.28-1.12,0,.53.11,1.1-.02,1.6-.63,2.4-1.25,4.81-2.03,7.16-.5,1.5.28,1.52,1.3,1.42,2.19-.2,4.38-.49,6.57-.61,1.12-.07,1.68-.45,1.64-1.6,0-.28.07-.56.11-.84.05.28.13.57.15.85.09,1.22.8,1.37,1.88,1.29,7.09-.53,14.19-1.06,21.29-1.46,2.9-.17,5.81-.05,8.72-.01,1.77.02,2.74.83,3.06,2.57.19,1.04.21,2.11.3,3.17Zm-35.79-1.5c-.12-.06-.41-.32-.63-.27-1.73.41-3.42,1.44-5.22.09-.16-.12-.85.36-1.2.66-.13.12-.1.67.05.79.27.21.74.43,1.03.33,1.27-.41,2.38-.52,3.67.24.84.49,2.42-.77,2.31-1.85Z"/>
  <path class="cls-1" d="m358.73,511.91c1.99-.86,3.99-1.69,5.94-2.63.28-.13.52-.85.41-1.19-.39-1.31.59-2.05,1.11-2.96.11-.19.47-.24.72-.36-.01.26,0,.53-.05.78-.54,3.31-.23,4.06,2.97,5.2,1.95.69,4.07.94,6.11,1.38,4.72,1.03,9.48,1.68,14.34,1.56,6.9-.16,13.81-.21,20.71-.31.2,0,.4.02.6.04,1.58.15,2.8-1.2,4.62-.76,1.41.34,3.12-.47,4.68-.83,1.65-.38,3.32-.75,4.93-1.28,3.6-1.17,7.16-2.45,10.75-3.63.75-.25,2.26-.2,2.27-.39.12-1.47-.03-2.96-.11-4.45-.01-.27-.06-.54-.09-.82.23.11.51.18.7.34,1.27,1.06,1.93,2.25,1,3.92-.28.5-.27,1.15-.44,1.72-.69,2.35-1.6,4.04-4.44,4.94-6.12,1.95-12.3,3.72-18.58,4.77-9.52,1.59-19.16,1.98-28.8.55-3.86-.57-7.78-.77-11.63-1.4-2.53-.41-5.24-.56-7.33-2.38-.88-.77-1.89-1.56-2.37-2.57-.61-1.27-1.15-1.38-2.28-.74-1.72.97-3.51,1.82-5.29,2.68-.4.19-.9.2-1.35.29.29-.34.59-.66.85-1.01.11-.15.1-.38.15-.57l-.11.1Z"/>
  <path class="cls-1" d="m229.86,366.97c-.63,0-.93.03-1.23,0-.28-.04-.56-.14-.83-.22.28-.08.56-.19.85-.25,2.28-.4,2.33-.39,2.3-2.67-.15-12.45-.45-24.91-.47-37.36-.02-10.75.27-21.49.42-32.24,0-.4.05-.81,0-1.2-.82-7.59.01-15.19-.18-22.79-.19-7.63-.05-15.27-.04-22.91.02-18.59.06-37.17.09-55.76.04-22,.07-44.01.11-66.01,0-1,0-2.01.1-3.01.02-.24.43-.6.68-.62.37-.02.75.22,1.13.35-.2.21-.53.39-.59.63-.22.94-.48,1.9-.48,2.86.03,9.85.16,19.69.17,29.54.05,42.3.07,84.6.08,126.9,0,2-.62,4.06-.31,5.99.93,6,.38,12.03.61,18.04.65,17.18-.02,34.34-.54,51.51-.08,2.51-.1,5.02-.2,7.53-.08,1.81-.12,1.81-1.67,1.71Z"/>
  <path class="cls-1" d="m359.51,527.13c-1.97-2.07-3.9-4.17-5.91-6.2-1.04-1.05-2.29-1.9-3.31-2.97-1.12-1.16-2.32-1.09-3.53-.41-8.02,4.56-16,9.19-24.02,13.74-7.85,4.46-15.75,8.84-23.62,13.28-1.82,1.03-3.58,2.18-5.39,3.24-.22.13-.57.04-.87.05.11-.28.13-.7.33-.82,2.34-1.49,4.66-3.02,7.08-4.37,6.49-3.64,13.02-7.18,19.19-11.39,5.41-3.7,11.13-6.93,16.73-10.34,1.62-.99,3.27-1.93,4.96-2.78,1.02-.52,2.15-.83,3.22-1.26.64-.26,1.33-.48,1.85-.9.3-.24.44-.87.38-1.28-.05-.3-.54-.72-.84-.72-.28,0-.72.42-.84.74-.31.85-1.06.87-1.29.33-1.27-3.01-4.51-4.11-6.24-6.65-.32-.48-1.02-.72-1.28-1.21-.48-.89.35-.9.9-1.04-.12-.21-.24-.43-.37-.63-.33-.5-.66-1-1.02-1.47-.5-.64-1.59-.89-1.31-2.03.68.51,1.35,1.04,2.04,1.53,2.57,1.84,4.64,4.35,7.55,5.74,1.82.87,3.65,1.7,5.48,2.55.18.08.51.07.55.18.87,2.38,1.98.78,2.99.17,1.05-.63,2.53-.72,2.91-2.22l-.12.11c.81-.28,1.65-.49,2.43-.84,1.17-.53,2.27-1.22,3.46-1.7.33-.13,1.1.14,1.24.43.16.32-.06.98-.34,1.31-.29.35-.86.45-1.27.74-.86.61-1.68,1.26-2.52,1.89l.11-.1c-1.92-.28-3,1.43-4.58,1.94-.09.03-.16.12-.24.17,1.42,1.73-.69,2.49-.98,3.74-.23,1,1.76,2.41,2.65,1.79.91-.63,1.37-.38,1.99.22,4.47,4.37,9.32,8.39,12.74,13.74.47.74,1.24,1.3,1.83,1.98.38.44.81.91.99,1.44.27.8.33,1.66.48,2.5-.69-.45-1.39-.88-2.06-1.34-.41-.28-.81-.59-1.16-.95-2.62-2.7-5.3-5.31-8.67-7.1-.77-.93-1.54-1.87-2.31-2.8Z"/>
  <path class="cls-1" d="m465.28,163.91c0,1.61.04,3.22-.01,4.82-.04,1.46-1.94,2.46-3.21,1.73-.09-.05-.17-.11-.25-.16.24-.13.47-.34.72-.38.68-.1,1.21-.25.84-1.11-.38-.88-.84-.37-1.41-.16-.89.32-1.87.49-2.82.57-1.98.16-3.76.42-5.49,1.83-1.78,1.45-4.27,1.62-6.58,1.27-2.27-.35-4.5-.97-6.75-1.46-.87-.19-1.47-.52-1.29-1.61.14-.86.53-1,1.36-1.16,2.53-.47,4.99-1.33,7.52-1.73,2.25-.35,4.57-.34,6.86-.39,1.01-.02,1.97.16,2.71-.81.46-.6,1.03-.61,1.85-.36,1.38.42,2.12-.74,1.6-2.24-.14-.39-.31-.8-.3-1.2,0-.82.78-1.83-.43-2.32-1.24-.5-2.79.13-3.55,1.22-.58.83-5.93-.48-6.53.33.24-.95,5.37.21,5.4-.74.04-1.32-.26-2.66.93-3.67.17-.14.34-.43.48-.42,2.05.2,2.97-1.26,2.38-3.64-.25-1.01-.25-2.08-.36-3.12-.09-.95-.46-.96-1.1-.37-.15.13-.59.2-.69.1-1.71-1.79-3.99-1.59-6.15-1.82-.33-.03,1.45-.36,1.13-.45.3-.04-1.51.07-1.21.05,1.2-.06,2.41-.08,3.61-.18.75-.06,1.73.18,1.91-.96.12-.78.89-1.72-.49-2.24-.26-.1-.37-.65-.51-1-.91-2.3-1.84-4.59-2.71-6.9-.51-1.34-1.31-1.97-2.77-1.43-.19.07-.45-.03-.68-.04.2-.31.34-.79.61-.89,1.8-.62,3.32-.1,4.67,1.65,3.62,4.68,6.45,9.75,8.27,15.45,1.46,4.57,2.35,9.16,2.44,13.93Z"/>
  <path class="cls-1" d="m96.69,226.38c28.74.12,57.49.23,86.23.37,3.21.02,6.43.19,9.64.32.29.01.57.27.85.41-.28.07-.57.2-.85.2-4.22.04-8.44.09-12.66.08-42.22-.06-84.44-.09-126.65-.22-16.78-.05-33.57-.3-50.35-.49-.84,0-1.68-.35-2.52-.53.62-1.17,1.7-.53,2.53-.53,31.26-.04,62.52-.03,93.78-.03,0,.14,0,.27,0,.41Z"/>
  <path class="cls-1" d="m158.42,468.26c2.62-1.85,5.81-2.26,8.71-3.43,2.48-1,5.03-1.8,7.56-2.68.98-.34,1.29-.81.61-1.76-.64-.88-1.22-1.82-1.72-2.79-.29-.58-.37-1.27-.55-1.9l-.06.05c2.05.57,2.74,2.51,3.49,4.05.72,1.48,1.22,1.35,2.46.91,9.92-3.54,19.88-6.99,29.81-10.51,4.31-1.53,8.57-3.22,12.87-4.78,5.7-2.06,11.44-4,17.12-6.11,4.38-1.63,8.68-3.45,13.03-5.15,1.3-.51,2.66-.89,3.98-1.35,1.64-.57,1.73-.89.57-2.1-.83-.86-1.75-1.64-2.56-2.51-.33-.35-.48-.87-.71-1.32.48.27,1.02.48,1.43.83,1.25,1.12,2.43,2.33,3.69,3.44.51.45,1.16.73,1.75,1.08l-.08-.09c-.2.39-.34,1.08-.61,1.13-5.61,1.05-10.65,3.74-15.99,5.55-5.74,1.95-11.43,4.02-17.13,6.08-4.31,1.55-8.58,3.19-12.89,4.73-5.79,2.07-11.6,4.05-17.39,6.12-5.42,1.93-10.83,3.91-16.23,5.9-.41.15-.7.62-1.04.94.42.16.84.33,1.27.48.28.09.97-.06.32.53-1.29,1.17-.01,2.11.44,2.86,2.53,4.17,5.25,8.22,7.87,12.33,5.18,8.12,10.34,16.25,15.52,24.37,3.31,5.19,62.61,96.39,65.89,101.59.39.62.5,1.41.74,2.12h.01c-2.03-.56-2.3-2.66-3.26-4.04-3.01-4.31-61.58-94.91-64.39-99.35-6.41-10.12-12.84-20.22-19.29-30.31-1.87-2.92-3.78-5.81-5.78-8.64-1.39-1.97-1.45-1.83-3.64-1.01-4.37,1.63-8.77,3.18-13.18,4.7-.74.26-1.59.2-2.39.29-.08-.09-.17-.18-.25-.27Z"/>
  <path class="cls-1" d="m810.49,424.62c-.08.94-1.56,2.08-2.41,1.85-3.48-.91-6.95-1.89-10.43-2.77-5.71-1.45-11.43-2.83-17.14-4.26-2.52-.63-5.05-1.25-7.55-1.94-5.78-1.61-11.51-3.39-17.32-4.87-5.9-1.5-11.89-2.68-17.82-4.07-4-.94-7.96-2.01-11.94-3-1.64-.41-3.31-.72-4.94-1.19-.43-.13-.75-.67-1.11-1.03.52-.21,1.1-.69,1.57-.6,2.26.43,4.49,1.03,6.73,1.55,6.42,1.5,12.86,2.97,19.27,4.5,3.79.91,7.55,1.97,11.34,2.88,6.22,1.48,12.46,2.87,18.68,4.35,3.99.95,7.95,2.02,11.95,2.97,6.12,1.44,12.26,2.81,18.39,4.24.77.18,1.52.49,2.26.81.22.1.35.41.48.58Z"/>
  <path class="cls-1" d="m33.53,345.53s-.17-.07-.34-.14c.13-.22.22-.61.39-.64,1.86-.4,3.72-.82,5.6-1.09,6.83-.98,13.67-1.86,20.5-2.87,5.04-.75,10.05-1.73,15.1-2.47,5.14-.76,10.31-1.34,15.47-2.02,1.09-.15,2.16-.47,3.24-.63,4.45-.67,8.92-1.27,13.37-1.96,5.34-.84,10.65-1.81,15.99-2.6,5.15-.76,10.32-1.34,15.48-2.03,1.49-.2,2.96-.52,4.44-.77,5.43-.89,10.85-1.85,16.29-2.65,5.15-.76,10.32-1.33,15.48-2.02,1.09-.14,2.16-.46,3.24-.63,5.45-.83,10.89-1.64,16.35-2.42.35-.05.75.27,1.13.42-.31.26-.6.7-.95.76-3.45.6-6.91,1.18-10.37,1.69-2.77.41-5.57.64-8.34,1.07-5.24.81-10.46,1.76-15.7,2.53-5.15.75-10.32,1.34-15.48,2.03-1.29.17-2.56.48-3.84.69-5.73.93-11.45,1.88-17.19,2.76-2.47.38-4.98.55-7.45.93-5.54.85-11.06,1.84-16.6,2.65-5.25.76-10.52,1.34-15.77,2.04-1.49.2-2.96.54-4.44.79-5.33.88-10.66,1.77-16,2.6-2.47.38-4.97.58-7.44.95-5.64.86-11.26,1.82-16.9,2.66-1.68.25-3.4.24-5.26.37Z"/>
  <path class="cls-1" d="m207,117.39c-2.63-.42-5.78-.97-8.95-1.41-5.74-.79-11.5-1.5-17.24-2.28-2.08-.28-4.14-.69-6.22-1.01-5.14-.8-10.28-1.64-15.43-2.36-5.45-.75-10.93-1.36-16.38-2.07-1.79-.23-3.55-.63-5.33-.92-5.24-.83-10.47-1.71-15.72-2.45-5.45-.76-10.93-1.35-16.39-2.07-1.99-.26-3.95-.67-5.93-.98-5.14-.82-10.27-1.7-15.43-2.43-5.35-.75-10.73-1.32-16.09-2.02-1.69-.22-3.35-.59-5.02-.93-.25-.05-.46-.31-.68-.47.3-.21.6-.62.89-.61,1.7.07,3.42.13,5.1.4,6.82,1.08,13.63,2.3,20.46,3.32,5.35.8,10.73,1.35,16.09,2.05,1.29.17,2.56.51,3.84.71,5.74.91,11.46,1.87,17.21,2.69,5.35.76,10.73,1.33,16.08,2.03,1.59.21,3.14.63,4.73.88,5.34.86,10.67,1.75,16.02,2.51,5.25.75,10.52,1.33,15.78,2.03,1.98.27,3.94.69,5.92,1.02,4.93.81,9.86,1.65,14.8,2.39,3.35.5,6.72.86,10.07,1.31.45.06.88.26,1.32.39-.48.09-.96.22-1.44.26-.5.05-1,.01-2.05.01Z"/>
  <path class="cls-1" d="m374.47,177.58c0,.8.05,1.61-.01,2.41-.16,1.99-.18,2.03-2.35,2.38-2.76.45-5.53.84-8.3,1.23-.59.08-1.2.12-1.8.1-4.07-.12-4.36-.42-4.34-4.41.01-2.21.05-4.41.09-6.62,0-.31.14-.61.21-.92.07.28.16.57.22.86.17.95.85.99,1.6.9,2.28-.28,4.56-.59,6.85-.84,1.24-.13,1.12-1.23,1.54-1.96.13-.23.41-.37.62-.55.04.28.12.56.1.84-.01.18-.28.4-.24.52.13.36.37.69.57,1.02.31-.18.88-.35.89-.55.08-1.6.07-3.2.04-4.79,0-.13-.46-.4-.57-.34-.71.36-1.12.47-.9-.6.26-1.24-.66-1.74-1.56-1.6-2.69.44-5.58.3-7.83,2.25-.13.11-.72-.63-.78-.44-.06-.17.42.65.45.49.21-1.08.45-2.15.69-3.22,0-.03.21-.08.26-.04,2.67,2.06,5.3-.24,7.95-.11.18,0,.53-.57.57-.9.24-1.98-1.11-3.56-3.11-3.75-.39-.04-.77-.14-1.16-.2.35-.11.69-.24,1.04-.33,1.64-.42,1.92-1.14.81-2.37-.31-.34-.86-.45-1.21-.76-.12-.1-.06-.68.05-.73.8-.35,1.44-.27,2.06.54,3.77,4.92,6.44,10.27,7.03,16.54.19,1.99.5,3.97.76,5.96-.08,0-.15.01-.23.02Zm-8.8-4.13c-1.65.28-2.83.54-4.02.68-3.14.35-3.52.72-3.53,3.77,0,.7.03,1.4.08,2.1.12,1.79.25,1.87,1.98,1.48,1.26-.28,2.69-.24,3.76-.84,1.17-.67,2.06-.67,3.13-.07.11.06.43-.07.53-.21.9-1.16,1.94-2.25,2.61-3.53.46-.87-.85-3.2-1.36-2.93-1.4.74-2.41-.63-3.17-.45Z"/>
  <path class="cls-1" d="m194.65,164.48c-3.92-.53-7.49-1.03-11.07-1.5-1.09-.15-2.19-.26-3.28-.38-4.28-.49-8.55-.99-12.83-1.49-.6-.07-1.19-.19-1.79-.26-5.07-.59-10.15-1.16-15.22-1.74-.4-.05-.8-.12-1.2-.09-4.11.27-8.1-.77-12.14-1.2-4.68-.5-9.35-1.1-14.02-1.66-6.76-.81-13.52-1.66-20.29-2.44-3.88-.45-7.78-.74-11.66-1.19-6.77-.78-13.52-1.66-20.29-2.44-4.08-.47-8.18-.81-12.26-1.23-.69-.07-1.38-.22-2.05-.38-.13-.03-.28-.31-.26-.45.02-.15.22-.29.36-.41.07-.06.2-.07.29-.06,3.28.36,6.56.72,9.84,1.08,3.99.44,7.97.86,11.96,1.32,3.68.42,7.36.89,11.04,1.33,1.19.15,2.38.31,3.58.45,4.18.47,8.36.93,12.54,1.41.7.08,1.38.25,2.08.33,5.07.59,10.15,1.19,15.22,1.74,3.88.42,7.78.72,11.66,1.17,6.67.77,13.32,1.63,19.98,2.4,3.78.44,7.58.73,11.36,1.17,6.86.79,13.72,1.66,20.58,2.46,1.29.15,2.61.09,3.91.2,1.29.11,2.59.25,3.87.49.63.12,1.21.51,1.81.78-.66.22-1.32.43-1.71.56Z"/>
  <path class="cls-1" d="m427.07,213.2c-2.01,0-4.02,0-6.03-.01-.28,0-.56-.15-.84-.24.26-.11.52-.3.78-.32,5.7-.39,11.4-.87,17.11-1.11,10.73-.44,21.47-.7,32.21-1.09,5.61-.2,11.22-.52,16.82-.77,7.22-.33,14.44-.64,21.66-.96,1.2-.05,2.41-.11,3.61-.09,1.79.04,2.51-.53,2.51-2.14,0-.79-.04-1.57-.06-2.36.26.91.56,1.81.78,2.73.09.38.01.8.04,1.2.07,1.2-.27,1.52-1.66,1.56-11.64.3-23.28.76-34.92,1.2-5.21.19-10.42.39-15.63.66-10.02.51-20.04,1.08-30.06,1.58-2.1.11-4.22.02-6.32.02,0,.05,0,.1,0,.15Z"/>
  <path class="cls-1" d="m196.42,237.97c0,23.11,0,46.21,0,69.32,0,.79-.1,1.59-.15,2.38-.12-.8-.34-1.59-.34-2.39-.06-16.88-.12-33.76-.13-50.63-.02-28.13,0-56.26.02-84.39,0-1.71.09-3.41.16-5.12.01-.29.15-.57.22-.86.07.29.18.57.19.86.04,1.81.08,3.62.08,5.42,0,21.8,0,43.6,0,65.4h-.05Z"/>
  <path class="cls-1" d="m416.11,160.26c.09,4.39.1,4.42,4.41,4.1.99-.07,1.95-.45,2.94-.62,3.65-.65,7.29-1.38,10.96-1.84,1.38-.17,2.84.3,4.26.52.1.02.24.32.22.46-.03.15-.23.35-.37.37-2.27.37-4.55.71-6.83,1.07-3.56.56-7.12,1.17-10.69,1.68-5.05.73-10.12,1.38-15.18,2.08-.89.12-1.76.4-2.65.53-4.46.66-8.92,1.31-13.38,1.94-.49.07-1,.01-1.5-.03-.18-.01-.36-.15-.54-.23.2-.14.38-.35.6-.4,1.56-.36,3.12-.75,4.69-1.02,3.55-.62,7.1-1.18,10.65-1.78,3.45-.58,6.9-1.24,10.36-1.76,1.27-.19,1.66-.75,1.62-1.99-.08-2.21-.01-4.42.01-6.63,0-.21.16-.42.25-.63.06.19.16.38.16.57.01,1.2,0,2.41,0,3.61Z"/>
  <path class="cls-1" d="m249.1,210.86c0-20.6,0-41.21,0-61.81,0-1.51.05-3.01.1-4.52.01-.36.1-.71.16-1.07.06.4.16.79.16,1.19.04,5.53.1,11.05.09,16.58-.03,22.51-.12,45.03-.12,67.54,0,14.07.15,28.14.21,42.21,0,2.11-.09,4.22-.16,6.33-.01.36-.15.71-.22,1.07-.05-.39-.16-.79-.16-1.18-.01-7.14-.02-14.27-.02-21.41,0-14.98,0-29.95,0-44.93h-.05Z"/>
  <path class="cls-1" d="m256.77,213.25c0,20.49,0,40.99,0,61.48,0,.9-.03,1.81-.07,2.71-.01.3-.07.6-.11.89-.04-.28-.1-.56-.11-.84-.03-.8-.05-1.61-.05-2.41-.01-36.27-.03-72.53-.03-108.8,0-5.63.04-11.25.07-16.88,0-.4.07-.8.1-1.19.04.38.12.76.13,1.15.05,6.53.13,13.06.14,19.59.02,14.77,0,29.53,0,44.3-.03,0-.05,0-.08,0Z"/>
  <path class="cls-1" d="m381.69,214.73c0,19.78,0,39.57,0,59.35,0,.9-.06,1.81-.11,2.71-.02.3-.07.59-.11.89-.04-.28-.1-.56-.11-.85-.05-2.01-.13-4.02-.13-6.02,0-38.46,0-76.93,0-115.39,0-1,.05-2.01.09-3.01,0-.19.09-.39.14-.58.06.18.15.36.16.54.06.8.13,1.6.13,2.41.05,7.93.1,15.87.11,23.8.02,12.05,0,24.1,0,36.15-.06,0-.12,0-.18,0Z"/>
  <path class="cls-1" d="m274.37,245.72c0,9.65,0,19.29,0,28.94,0,.8-.03,1.61-.08,2.41,0,.13-.21.37-.31.36-.17-.02-.44-.16-.47-.29-.14-.67-.32-1.36-.32-2.04.03-19.39.08-38.78.15-58.17,0-.9.14-1.8.27-2.69.04-.25.31-.46.48-.69.08.28.21.56.22.84.04.8.03,1.61.03,2.41,0,9.65,0,19.29,0,28.94h.03Z"/>
  <path class="cls-1" d="m267.72,209.07c0,16.37,0,32.75,0,49.12,0,3.52-.08,7.03-.14,10.54,0,.36-.09.73-.13,1.09-.03-.4-.08-.8-.08-1.2-.01-9.64-.02-19.29-.03-28.93-.03-28.63-.06-57.26-.09-85.89,0-1.71.02-3.42.06-5.12,0-.36.12-.71.18-1.06.07.39.19.78.19,1.18.02,4.32.03,8.64.04,12.95,0,15.77,0,31.54,0,47.31Z"/>
  <path class="cls-1" d="m500.58,221.11c-2.28-1.72-4.58-3.42-6.82-5.19-.77-.61-1.47-1.34-2.1-2.09-.83-.99-.53-1.92.74-2.09,1.08-.14,2.2,0,3.3.05,6.32.26,12.63.53,18.95.79,2.29.09,4.59.23,6.88.22,6.43-.02,12.87-.1,19.3-.19.78-.01,1.56-.27,2.35-.31.62-.03,1.25.09,1.87.19.14.02.25.26.38.4-.2.13-.39.29-.61.37-.18.06-.4.02-.6.02-5.12.12-10.24.37-15.36.33-11.65-.09-23.31-.33-34.96-.5-.37,0-.74.08-1.12.13.25.39.43.84.75,1.15,2.33,2.25,4.69,4.47,7.04,6.7h.01Z"/>
  <path class="cls-1" d="m158.67,468.54c-2.71,1.12-5.38,2.36-8.14,3.35-4.68,1.67-9.4,3.22-14.12,4.77-6.51,2.14-13.03,4.24-19.55,6.34-.25.08-.55,0-.83-.01.21-.26.37-.69.63-.75,4.82-1.25,9.32-3.39,14.08-4.83,4.66-1.41,9.23-3.13,13.83-4.75,3.83-1.35,7.63-2.77,11.47-4.1.74-.26,1.59-.2,2.38-.29.08.09.16.19.25.27Z"/>
  <path class="cls-1" d="m78.2,560.52c-.18.28-.38.58-.58.89-.17-.28-.44-.53-.49-.83-.57-3.55-1.15-7.1-1.63-10.66-.41-3.07-.65-6.16-1.01-9.23-.7-6.05-1.42-12.1-2.16-18.14-.22-1.77-.55-3.52-.77-5.29-.04-.28.22-.59.34-.89.16.23.41.44.46.69.33,1.67.67,3.33.91,5.01.66,4.55,1.33,9.09,1.88,13.65.72,5.95,1.29,11.91,1.99,17.86.27,2.28.69,4.55,1.06,6.94Z"/>
  <path class="cls-1" d="m539.71,245.84c3.77.43,8.04.91,12.31,1.41.6.07,1.18.26,1.77.3,5.19.41,10.37.82,15.56,1.18,4.19.29,8.39.52,12.58.8.45.03,1.16-.02.83.78-.11.27-.58.59-.86.57-3.99-.31-7.98-.66-11.97-1.02-.8-.07-1.59-.31-2.38-.31-6.33-.02-12.56-.99-18.82-1.78-4.15-.52-19.34-2.39-23.5-2.83-.28-.03-.55-.2-.83-.3.26-.1.51-.28.77-.29,1-.03,13.01,1.5,14.52,1.5Z"/>
  <path class="cls-1" d="m304.91,207.83c1.19.38,2.78.87,4.35,1.39.17.06.4.25.41.4.09.96.56,2.33.11,2.79-1.07,1.11-1.08,3.46-3.32,3.25-1.48-.14-2.95-.5-4.42-.74-.79-.13-1.44-.49-1.08-1.35.12-.3.94-.5,1.4-.43.81.11,1.5.35,2.15-.47.97-1.2.91-1.56-.62-2.06-.28-.09-.63-.13-.84-.31-.35-.3-.91-.79-.84-1.03.16-.5.62-.97,1.07-1.28.28-.2.78-.09,1.62-.15Z"/>
  <path class="cls-1" d="m262.07,240.69c0,11.04,0,22.07,0,33.11,0,.3,0,.6,0,.9-.01.2-.05.4-.08.59-.03-.2-.08-.39-.09-.59-.02-.3-.01-.6-.01-.9-.01-22.08-.02-44.15-.03-66.23,0-.3,0-.6.02-.9.02-.2.08-.39.12-.58.04.19.11.39.12.58.02.5.02,1,.02,1.5,0,10.84,0,21.67,0,32.51-.02,0-.04,0-.06,0Z"/>
  <path class="cls-1" d="m366.09,226.55c0-8.93,0-17.85,0-26.78,0-1.2.04-2.41.08-3.61,0-.3.09-.59.14-.88.05.28.12.55.13.83.03.8.06,1.6.05,2.41-.02,7.72-.07,15.44-.06,23.17.01,11.23.07,22.47.09,33.7,0,.81-.18,1.62-.27,2.43-.08-.79-.22-1.59-.22-2.38-.02-9.63-.01-19.26-.01-28.88.02,0,.05,0,.07,0Z"/>
  <path class="cls-1" d="m536.73,421.42c0-21.22,0-42.44,0-63.67,0-2.86.1-5.72.2-8.58.02-.7.22-1.4.34-2.1.12.66.31,1.31.33,1.98.08,1.91.14,3.81.13,5.72-.04,18.36-.17,36.72-.14,55.08.03,26.71.18,53.42.22,80.13,0,1.92-.44,3.85-.67,5.77-.19-1.89-.55-3.77-.55-5.66-.04-22.89-.03-45.78-.03-68.67.06,0,.11,0,.17,0Z"/>
  <path class="cls-1" d="m518.92,433.95c0-21.22,0-42.44,0-63.67,0-2.86.1-5.72.2-8.58.02-.7.22-1.4.34-2.1.12.66.31,1.31.33,1.98.08,1.91.14,3.81.13,5.72-.04,18.36-.17,36.72-.14,55.08.03,26.71.18,53.42.22,80.13,0,1.92-.44,3.85-.67,5.77-.19-1.89-.55-3.77-.55-5.66-.04-22.89-.03-45.78-.03-68.67.06,0,.11,0,.17,0Z"/>
  <path class="cls-1" d="m501.48,441.18c0-22.27,0-44.54,0-66.8,0-3,.1-6,.2-9,.02-.74.22-1.47.34-2.2.12.69.31,1.38.33,2.07.08,2,.14,4,.13,6-.04,19.27-.17,38.53-.14,57.8.03,28.02.18,56.05.22,84.07,0,2.02-.44,4.04-.67,6.06-.19-1.98-.55-3.96-.55-5.94-.04-24.02-.03-48.04-.03-72.06.06,0,.11,0,.17,0Z"/>
  <path class="cls-1" d="m489.22,454.08c0-22.27,0-44.54,0-66.8,0-3,.1-6,.2-9,.02-.74.22-1.47.34-2.2.12.69.31,1.38.33,2.07.08,2,.14,4,.13,6-.04,19.27-.17,38.53-.14,57.8.03,28.02.18,56.05.22,84.07,0,2.02-.44,4.04-.67,6.06-.19-1.98-.55-3.96-.55-5.94-.04-24.02-.03-48.04-.03-72.06.06,0,.11,0,.17,0Z"/>
  <path class="cls-1" d="m551.7,413.04c0-19.15,0-38.3,0-57.45,0-2.58.08-5.16.17-7.74.02-.63.19-1.26.29-1.89.1.59.26,1.19.29,1.78.07,1.72.12,3.44.11,5.16-.04,16.57-.14,33.14-.12,49.7.03,24.1.15,48.2.19,72.3,0,1.74-.38,3.47-.58,5.21-.17-1.7-.47-3.41-.48-5.11-.03-20.66-.02-41.31-.02-61.97.05,0,.1,0,.15,0Z"/>
  <path class="cls-1" d="m567.85,403.89c0-20.48,0-40.97,0-61.45,0-2.76.1-5.52.2-8.28.02-.68.22-1.35.34-2.02.12.64.31,1.27.33,1.91.08,1.84.14,3.68.13,5.52-.04,17.72-.17,35.45-.14,53.17.03,25.78.18,51.56.22,77.34,0,1.86-.44,3.71-.67,5.57-.19-1.82-.55-3.64-.55-5.46-.04-22.1-.03-44.19-.03-66.29.06,0,.11,0,.17,0Z"/>
  <path class="cls-1" d="m581.1,398.29c0-20.48,0-40.97,0-61.45,0-2.76.1-5.52.2-8.28.02-.68.22-1.35.34-2.02.12.64.31,1.27.33,1.91.08,1.84.14,3.68.13,5.52-.04,17.72-.17,35.45-.14,53.17.03,25.78.18,51.56.22,77.34,0,1.86-.44,3.71-.67,5.57-.19-1.82-.55-3.64-.55-5.46-.04-22.1-.03-44.19-.03-66.29.06,0,.11,0,.17,0Z"/>
  <path class="cls-1" d="m334.85,196.51c0-8.93,0-17.85,0-26.78,0-1.2.04-2.41.08-3.61,0-.3.09-.59.14-.88.05.28.12.55.13.83.03.8.06,1.6.05,2.41-.02,7.72-.07,15.44-.06,23.17.01,11.23.07,22.47.09,33.7,0,.81-.18,1.62-.27,2.43-.08-.79-.22-1.59-.22-2.38-.02-9.63-.01-19.26-.01-28.88.02,0,.05,0,.07,0Z"/>
  <path class="cls-1" d="m292.69,188.95c0-8.93,0-17.85,0-26.78,0-1.2.04-2.41.08-3.61,0-.3.09-.59.14-.88.05.28.12.55.13.83.03.8.06,1.6.05,2.41-.02,7.72-.07,15.44-.06,23.17.01,11.23.07,22.47.09,33.7,0,.81-.18,1.62-.27,2.43-.08-.79-.22-1.59-.22-2.38-.02-9.63-.01-19.26-.01-28.88.02,0,.05,0,.07,0Z"/>
  <path class="cls-1" d="m58.92,431.69c.15.12.42.22.44.36.49,2.71.95,5.42,1.42,8.14.46,2.66.94,5.31,1.39,7.97.39,2.36.78,4.72,1.1,7.09.76,5.55,1.47,11.1,2.23,16.64.19,1.37.51,2.72.74,4.08.03.17-.12.36-.19.54-.18-.17-.48-.31-.51-.51-.38-2.25-.7-4.51-1.09-6.76-.52-3.05-1.14-6.09-1.61-9.16-.41-2.67-.62-5.37-.99-8.05-.61-4.45-.99-8.96-2.02-13.32-.56-2.39-.75-4.71-.83-7.1l-.08.06Z"/>
  <path class="cls-1" d="m270.89,238.55c0-9.53,0-19.05,0-28.58,0-.4.02-.8.06-1.2.02-.26.09-.51.13-.76.04.3.09.59.12.89.03.4.07.8.07,1.2-.02,19.45-.05,38.91-.07,58.36,0,.3,0,.6-.03.9-.01.16-.09.31-.13.47-.03-.2-.08-.39-.09-.59-.02-.4-.02-.8-.02-1.2,0-9.83,0-19.66,0-29.48-.01,0-.03,0-.04,0Z"/>
  <path class="cls-1" d="m444.27,307.35c-6.69.32-13.38.66-20.07.94-.72.03-1.46-.28-2.19-.43.69-.16,1.38-.4,2.08-.45,8.89-.68,17.79-1.27,26.67-2.05,1.1-.1,1.17.41,1.39.96.36.91-.34.95-.95.95-2.3,0-4.61,0-6.91,0,0,.03,0,.05,0,.08Z"/>
  <path class="cls-1" d="m560.28,224.15c1.08.63,2.32,1.1,3.22,1.93,5.54,5.15,11.06,10.34,16.47,15.62,2.28,2.23,4.3,4.73,6.41,7.13.22.25.26.65.39.98-.42-.12-.99-.12-1.25-.4-2.39-2.52-4.72-5.09-7.08-7.64-5.31-5.76-11.04-11.06-17.08-16.05-.47-.39-.69-1.09-1.02-1.64l-.06.06Z"/>
  <path class="cls-1" d="m399.14,244.67c0,8.63,0,17.26,0,25.89,0,.8-.04,1.61-.08,2.41,0,.18-.11.35-.17.52-.06-.19-.16-.37-.17-.57-.06-.9-.13-1.8-.14-2.71-.01-6.32,0-12.64-.01-18.96-.01-10.74-.04-21.47-.02-32.21,0-1.3.2-2.59.3-3.89.11,1.31.31,2.61.32,3.92.03,8.53.01,17.06.01,25.59-.01,0-.02,0-.03,0Z"/>
  <path class="cls-1" d="m517.49,215.89c4.61.28,9.21.6,13.82.82,3.11.15,6.23.15,9.34.23.8.02,1.64-.08,2.4.12.9.23,1.73.72,2.59,1.09-.74,1.2-1.79.38-2.65.33-3.6-.21-7.19-.67-10.8-.82-8.53-.36-17.06-.59-25.58-.87-.3,0-.6,0-.9-.04-.29-.03-.59-.1-.88-.15.3-.11.6-.3.9-.3,3.92-.02,7.83-.01,11.75-.01,0-.13,0-.26.01-.39Z"/>
  <path class="cls-1" d="m390.4,246.33c0-7.62,0-15.24,0-22.86,0-.5-.02-1,.01-1.5.01-.22.12-.44.18-.66.03.2.07.39.08.59.01.5,0,1,0,1.5.03,11.23.05,22.46.12,33.68.01,2.4.28,4.8.32,7.2.03,2-.08,4-.18,5.99-.02.48-.25.94-.38,1.41-.09-.44-.25-.87-.27-1.31-.04-1.6-.05-3.21-.05-4.81,0-6.42,0-12.83,0-19.25h.16Z"/>
  <path class="cls-1" d="m247.02,248.86c0,8.63,0,17.26,0,25.89,0,.38-.09.77-.14,1.15-.05-.4-.15-.79-.15-1.19-.05-6.42-.14-12.84-.13-19.27.02-11.04.11-22.08.18-33.12,0-.39.07-.77.11-1.16.03.4.09.8.09,1.19,0,8.83,0,17.66,0,26.49.01,0,.03,0,.04,0Z"/>
  <path class="cls-1" d="m298.68,468.46c.22.17.55.39.83.66,6.99,6.49,13.98,12.99,20.97,19.49.15.14.38.24.43.41.1.31.1.66.15.99-.28-.04-.64,0-.82-.15-1.26-1.11-2.49-2.25-3.71-3.39-5.97-5.58-11.93-11.17-17.89-16.75-.21-.2-.42-.44-.54-.7-.05-.11.09-.33.18-.48.03-.05.17-.03.41-.07Z"/>
  <path class="cls-1" d="m410.5,244.59c0,7.82,0,15.64,0,23.47,0,.4-.05.8-.07,1.2-.03-.37-.08-.75-.08-1.12-.03-15.65-.05-31.29-.07-46.94,0-.4.09-.79.13-1.19.06.47.18.94.18,1.42.01,7.72,0,15.45,0,23.17-.03,0-.07,0-.1,0Z"/>
  <path class="cls-1" d="m544.66,243.14c4.66.54,9.31,1.11,13.97,1.61,3.77.41,7.56.76,11.34,1.12.6.06,1.22-.04,1.79.11.37.1.65.51.97.78-.37.16-.76.49-1.11.46-4.57-.46-9.13-.94-13.69-1.47-2.58-.3-5.14-.73-7.71-1.02-2.78-.32-5.56-.54-8.34-.82-.29-.03-.56-.15-.85-.23.31-.14.61-.39.93-.4.9-.06,1.8-.02,2.7-.02,0-.04,0-.08.01-.12Z"/>
  <path class="cls-1" d="m280.01,395.78c-.68.1-1.09.31-1.32.18-1.04-.57-2.03-1.22-3.03-1.86-4.75-3.07-9.5-6.14-14.25-9.22-.25-.16-.49-.36-.68-.58-.2-.24-.35-.52-.52-.79.38,0,.84-.13,1.14.03.95.52,1.84,1.14,2.75,1.74,1.49.97,2.98,1.93,4.45,2.92,1.19.8,1.49.7,1.65-.66.05-.4,0-.8.04-1.2.02-.19.11-.38.16-.57.05.16.1.33.14.49.02.1.03.2.02.3-.43,2.3.47,3.67,2.65,4.65,2.02.91,3.81,2.32,5.68,3.53.31.2.56.51,1.11,1.04Z"/>
  <path class="cls-1" d="m245.17,257.66c0,6.92,0,13.84,0,20.75,0,.39-.07.78-.11,1.17-.04-.39-.12-.79-.12-1.18.01-13.83.03-27.67.05-41.5,0-.39.05-.79.08-1.18.02.4.06.8.06,1.2,0,6.92,0,13.84,0,20.75h.04Z"/>
  <path class="cls-1" d="m259.89,432.26c1.81-2,4.45-2.4,6.73-3.48.83-.39,2.05-.09,2.29-1.48.04-.22.66-.39,1.04-.5,2.44-.7,4.88-1.38,7.34-2.03.24-.06.55.14.82.22-.15.3-.22.78-.46.88-1.97.89-3.95,1.77-5.98,2.52-3.06,1.13-6.16,2.17-9.26,3.21-.84.28-1.73.38-2.6.56l.08.09Z"/>
  <path class="cls-1" d="m587.22,277.81c0,3.1,0,6.21,0,9.31,0,.43-.08.86-.13,1.29-.04-.4-.11-.8-.11-1.19-.02-4.31-.03-8.61-.04-12.92,0-1.9.04-3.81,0-5.71-.07-2.81-.13-2.85-2.85-2.96-.4-.02-.8,0-1.2-.05-.45-.05-.88-.16-1.33-.24.49-.07.98-.18,1.47-.21,3.8-.21,3.77-.2,3.75-4.09,0-1.22.23-2.44.35-3.66.08,1.18.04,2.38.26,3.54.26,1.45-.98,3.22.89,4.34.09.06.15.18.22.27-2.35,1.58-.97,3.96-1.2,5.97-.23,2.08-.05,4.2-.05,6.31h-.01Z"/>
  <path class="cls-1" d="m288.83,550.31c-.32.25-.6.52-.93.71-3.64,2.03-7.29,4.04-10.93,6.06-.95.53-1.88,1.13-2.85,1.62-.42.21-96.55,53.69-97.01,53.67-.36-.01,94.89-53.67,94.54-53.84.21-.18.4-.4.64-.55,1.45-.86,2.88-1.76,4.37-2.54,3.42-1.78,6.87-3.5,10.32-5.22.43-.21.93-.29,1.4-.37.1-.02.24.23.45.46Z"/>
  <path class="cls-1" d="m528.6,241.96c-.27.18-.57.52-.71.46-.54-.23-1.12-.49-1.51-.9-5.11-5.35-10.18-10.74-15.26-16.11-.14-.15-.33-.27-.4-.45-.08-.21-.05-.47-.06-.7.25.09.57.12.75.29,3.1,3.1,6.2,6.21,9.26,9.35,2.49,2.55,4.93,5.14,7.4,7.71.13.13.31.21.54.36Z"/>
  <path class="cls-1" d="m661.62,481.09c.96.16,1.98.17,2.88.5,5.84,2.21,11.66,4.49,17.48,6.75.74.29,1.47.59,2.18.94.29.14.5.44.75.66-.28.06-.57.17-.85.16-.4-.02-.81-.08-1.17-.22-5.06-2.01-10.11-4.05-15.17-6.06-1.75-.7-3.53-1.31-5.27-2.02-.31-.13-.52-.5-.77-.76l-.05.05Z"/>
  <path class="cls-1" d="m661.67,481.04c-.87-.15-1.79-.16-2.6-.46-5.46-2.08-10.9-4.23-16.35-6.33-.55-.21-1.17-.23-1.72-.45-.37-.15-.66-.49-.98-.75.48-.24,1.09-.8,1.42-.67,1.44.59,2.75,1.5,4.2,2.07,4.25,1.67,8.56,3.19,12.82,4.86,1.12.44,2.11,1.18,3.17,1.79l.05-.05Z"/>
  <path class="cls-1" d="m71.43,513.78c-.2-.17-.42-.27-.47-.42-.13-.48-.3-.98-.27-1.46.2-3.33-.85-6.47-1.46-9.68-.23-1.2.11-2.74-1.7-3.07.43-1.05,1.12-2.07,1.22-3.14.09-1.01-.5-2.06-.66-3.12-.08-.52.15-1.09.24-1.64.18.43.44.86.52,1.31.13.68.26,1.4.2,2.08-.15,1.53.18,2.76,1.77,3.32.61.22.53.51.05.71-1.27.54-.99,1.52-.86,2.53.32,2.37.57,4.75.9,7.12.21,1.56.52,3.11.75,4.66.03.24-.14.51-.23.8Z"/>
  <path class="cls-1" d="m524.01,220.37c4.58.37,9.17.73,13.75,1.12.35.03.68.32,1.01.5-.34.11-.68.31-1.01.3-3.38-.11-6.73.16-10.12-.76-2.44-.66-5.16-.26-7.76-.39-1.42-.07-2.84-.24-4.26-.37,1.39-.06,2.77-.15,4.16-.18,1.4-.03,2.8,0,4.2,0l.02-.22Z"/>
  <path class="cls-1" d="m173.03,455.71c-1.9-.53-2.15-2.48-3.07-3.78-2.34-3.27-4.32-6.81-6.45-10.24-.21-.34-.52-.64-.62-1.01-.1-.35.02-.76.04-1.14.25.22.56.4.74.66,3.05,4.61,6.1,9.21,9.08,13.86.28.43.16,1.12.22,1.69l.06-.05Z"/>
  <path class="cls-1" d="m245.15,160.22c0,4.91,0,9.81,0,14.72,0,.46-.07.91-.11,1.37-.04-.4-.11-.79-.11-1.19-.02-10.01-.03-20.02-.03-30.03,0-.3,0-.6.04-.9.03-.26.1-.52.15-.77.04.3.09.59.1.89.02.5.02,1,.02,1.5,0,4.81,0,9.61,0,14.42-.02,0-.04,0-.05,0Z"/>
  <path class="cls-1" d="m586.75,291.09c2.62.43,5.67.95,8.73,1.43,3.23.51,6.46.98,9.69,1.47.3.04.62,0,.9.09.94.3,1.86.63,2.79.96-.92-.04-1.85-.07-2.77-.11-5.38-.25-10.51-2.31-15.98-2.11-1.8.07-3.63-.75-5.45-1.19-.15-.04-.27-.21-.4-.31.18-.07.36-.2.54-.21.5-.03,1-.01,1.94-.01Z"/>
  <path class="cls-1" d="m148.16,416.07c.19.18.44.35.6.58,2.36,3.66,4.71,7.32,7.06,10.98.63.98,1.27,1.96,1.83,2.99.17.31.09.76.13,1.14-.22-.21-.48-.38-.65-.63-1.92-2.76-3.84-5.52-5.72-8.31-1.22-1.81-2.39-3.65-3.52-5.52-.17-.28-.02-.75,0-1.13,0-.03.14-.05.28-.11Z"/>
  <path class="cls-1" d="m297.82,408.05c.73.21,1.56.25,2.17.64,4.56,2.96,9.1,5.95,13.59,9.02.75.51,1.22,1.44,1.82,2.18-4.12-2.7-8.26-5.39-12.36-8.12-1.78-1.18-3.48-2.47-5.22-3.72Z"/>
  <path class="cls-1" d="m561.94,213.99c.15,2.42.29,4.52.39,6.62,0,.21-.27.44-.41.66-.17-.2-.45-.38-.49-.6-.81-4.58-.96-9.17,0-13.76.06-.28.2-.54.3-.81.07.34.21.67.21,1.01.02,2.4,0,4.8,0,6.89Z"/>
  <path class="cls-1" d="m555.5,287.77c-3.45-.6-6.9-1.26-10.37-1.79-1.67-.25-3.38-.25-5.07-.41-.2-.02-.37-.32-.56-.49.16-.1.32-.27.49-.28.4-.02.8.03,1.19.08,4.52.57,9.05,1.14,13.57,1.7.99.12,2,.17,2.99.3.25.03.48.24.72.36-.27.09-.54.26-.81.26-.7.01-1.4-.05-2.1-.08l-.06.34Z"/>
  <path class="cls-1" d="m445.96,226.05c3.92,0,7.83-.01,11.75.01.43,0,.86.21,1.29.32-.37.1-.75.29-1.12.29-8.13-.08-16.27-.18-24.4-.28-.3,0-.6-.06-.89-.1.34-.05.68-.13,1.03-.13,4.12,0,8.23,0,12.35,0v-.1Z"/>
  <path class="cls-1" d="m359.51,527.13c.77.93,1.54,1.87,2.31,2.8-1.26.23-1.97-.58-2.81-1.33-2.58-2.29-5.25-4.48-7.86-6.73-.22-.19-.29-.56-.43-.84.37.05.84-.02,1.08.18,1.92,1.54,3.78,3.16,5.7,4.71.6.48,1.33.81,2,1.21Z"/>
  <path class="cls-1" d="m560.34,224.08c-.48-.08-1.08,0-1.41-.25-3.23-2.46-6.43-4.98-9.63-7.49-.24-.18-.48-.37-.67-.6-.1-.11-.16-.41-.1-.46.13-.11.38-.2.52-.15.36.15.71.35,1.03.58,3.19,2.38,6.38,4.75,9.54,7.17.34.26.45.83.67,1.25,0,0,.06-.06.06-.06Z"/>
  <path class="cls-1" d="m547.63,236.97c-3.33-.46-6.65-.92-9.98-1.4-.28-.04-.56-.17-.83-.26.29-.07.57-.19.86-.19,1.8,0,3.61-.07,5.39.08,2.78.24,5.55.63,8.33.98.35.04.69.22,1.03.33-.39.07-.77.19-1.16.2-1.2.03-2.4,0-3.6,0-.01.08-.02.17-.03.25Z"/>
  <path class="cls-1" d="m636.68,472.11c-1.75-.67-3.5-1.34-5.24-2.02-2.21-.87-4.43-1.74-6.63-2.63-.26-.11-.46-.37-.69-.55.37-.04.78-.22,1.1-.11,2.16.73,4.3,1.5,6.43,2.29,1.76.65,3.51,1.33,5.24,2.03.34.14.61.43.92.66-.35.1-.7.21-1.13.33Z"/>
  <path class="cls-1" d="m281.58,453.33c.28.06.64.04.82.2,3.78,3.42,7.53,6.85,11.28,10.3.19.17.24.48.36.72-.36,0-.88.14-1.07-.04-3.81-3.71-7.59-7.46-11.37-11.21,0,0-.02.02-.02.02Z"/>
  <path class="cls-1" d="m284.82,163.2c0-3.21,0-6.42,0-9.63,0-.34.06-.68.09-1.02.02.3.05.6.05.9.02,6.62.04,13.24.05,19.85,0,.4-.07.8-.1,1.2-.06-.46-.16-.92-.16-1.37-.01-3.31,0-6.62,0-9.93.03,0,.05,0,.08,0Z"/>
  <path class="cls-1" d="m246.98,153.58c0,3.2,0,6.4,0,9.6,0,.39-.06.78-.1,1.17-.04-.4-.1-.79-.1-1.19-.02-6.6-.03-13.19-.03-19.79,0-.39.09-.78.14-1.17.04.4.12.79.12,1.19,0,3.4,0,6.8,0,10.2,0,0-.02,0-.03,0Z"/>
  <path class="cls-1" d="m317.57,421.32c.58.07,1.28-.03,1.72.25,2.07,1.33,4.06,2.78,6.1,4.15.65.44,1.35.88,2.09,1.11.96.3,1.22.93,1.22,1.81-.29-.03-.66.05-.87-.1-3.43-2.39-6.84-4.81-10.26-7.23Z"/>
  <path class="cls-1" d="m546.44,238.61c4.64-.3,9.21.33,13.77,1.06.33.05.63.32.94.49-.28.09-.57.27-.84.25-2.29-.18-4.58-.38-6.87-.6-1.5-.14-3-.27-4.49-.52-.84-.14-1.64-.5-2.45-.75,0,0-.06.07-.06.07Z"/>
  <path class="cls-1" d="m435.71,303.87c-.7,0-1.4.05-2.09-.01-1.1-.1-2.18-.29-3.28-.44,1.04-.25,2.06-.58,3.11-.72,1.97-.27,3.95-.46,5.94-.61.55-.04,1.14.14,1.67.34.18.07.33.52.3.76-.02.19-.36.47-.56.47-1.69.04-3.39.02-5.08.02,0,.06,0,.12,0,.19Z"/>
  <path class="cls-1" d="m277.8,227.97c0,2.91,0,5.82,0,8.73,0,.38-.12.77-.19,1.15-.02-.4-.05-.8-.05-1.2-.03-5.72-.06-11.44-.09-17.17,0-.3.02-.6.05-.9.03-.3.08-.59.13-.89.08.31.21.63.22.94.02,3.11,0,6.22,0,9.34-.02,0-.04,0-.06,0Z"/>
  <path class="cls-1" d="m427.66,152.73c-.53-.1-1.48-.28-2.43-.45.87-.17,1.74-.35,2.61-.5,1.28-.22,2.55-.44,3.83-.61,1.48-.19,2.97-.35,4.47-.44.29-.02.61.35.92.55-.3.16-.59.41-.91.45-2.67.34-5.35.64-8.5,1Z"/>
  <path class="cls-1" d="m283.19,224.39c0,2.9,0,5.8,0,8.71,0,.39-.07.77-.1,1.16-.04-.4-.11-.79-.12-1.19,0-5.9,0-11.81.01-17.71,0-.28.07-.57.11-.85.03.29.09.59.09.88,0,3,0,6,0,9.01,0,0,0,0,0,0Z"/>
  <path class="cls-1" d="m365.45,148.45c-.29,1.46-.31,3.26-.6,4.72-.11-1.46-.54-3.26-.59-4.72-.04-1.38.02-2.77.09-4.15.01-.23.28-.45.42-.68.12.21.34.42.35.64.03,1.38.02,2.77.02,4.16.11.01.21.03.32.04Z"/>
  <path class="cls-1" d="m301.69,228.59c0-2.71,0-5.42,0-8.13,0-.31.1-.62.16-.93.04.3.11.6.11.89,0,5.52,0,11.05,0,16.57,0,.29-.03.58-.05.88-.07-.38-.2-.76-.21-1.14-.02-2.71,0-5.42,0-8.13,0,0,0,0,0,0Z"/>
  <path class="cls-1" d="m546.5,238.53c-3.46-.07-6.93.44-10.34-.81-1.35-.49-2.96-.25-4.45-.36-.29-.02-.57-.16-.85-.24.23-.1.47-.3.69-.28,2.36.19,4.71.4,7.06.62,1.38.13,2.76.23,4.13.43,1.24.18,2.47.47,3.7.71l.06-.07Z"/>
  <path class="cls-1" d="m515.09,234.93c.28.07.52.06.63.17.89.94,2.37,2.52,5.8,6.25.09.1,2.23,2.44,2.27,2.59-.29.04-2.87-1.93-2.99-2.06-3.53-3.67-4.91-5.22-5.79-6.19-.11-.12.06-.5.1-.77Z"/>
  <path class="cls-1" d="m59,431.63c-.12-.15-.33-.29-.36-.46-.72-4.19-1.42-8.37-2.11-12.56-.06-.39-.07-.8,0-1.19.05-.33.22-.64.34-.96.08.28.18.56.23.85.19,1.17.45,2.34.54,3.52.28,3.64,1.91,7.12,1.29,10.87,0,0,.08-.06.08-.06Z"/>
  <path class="cls-1" d="m355.83,509.98c-.1,0-.2.01-.3,0-.48-.08-.96-.16-1.44-.24.24-.3.41-.7.72-.88,1.45-.88,2.93-1.69,4.39-2.53.94-.54,1.87-1.12,2.82-1.65.14-.08.38.03.58.05-.06.2-.04.5-.18.59-1.73,1.17-3.48,2.3-5.2,3.48-.54.37-1.01.86-1.51,1.3,0,0,.12-.11.12-.11Z"/>
  <path class="cls-1" d="m312.39,168c-.59-.03-1.19-.02-1.77-.11-.18-.03-.49-.41-.45-.52,1.08-2.79.36-5.71.61-8.55.03-.29.26,2.21.29,1.91.07.31-.02-2.18,0-1.87.11,1.68-.26,3.57.41,4.98.69,1.44-.21,3.01.86,4.22l.06-.06Z"/>
  <path class="cls-1" d="m279.96,164.9c0-2.1,0-4.2,0-6.31,0-.4.04-.8.06-1.2.07.34.21.69.21,1.03.02,4.4.03,8.81.02,13.21,0,.35-.11.71-.18,1.06-.05-.4-.13-.79-.14-1.19-.01-2.2,0-4.4,0-6.61,0,0,.01,0,.02,0Z"/>
  <path class="cls-1" d="m556.54,227.49c-.28.07-.62.26-.75.17-.63-.46-1.2-1-1.8-1.49-1.91-1.56-3.83-3.11-5.72-4.68-.19-.16-.29-.44-.43-.67.27-.03.64-.19.79-.07,2.54,2.04,5.05,4.11,7.56,6.18.14.11.2.32.35.57Z"/>
  <path class="cls-1" d="m500.57,221.12c2.33,1.96,4.67,3.92,6.98,5.9.08.07.07.39-.02.5-.09.11-.42.21-.48.15-2.22-2.13-4.98-3.73-6.47-6.57,0,0-.01.01-.01.01Z"/>
  <path class="cls-1" d="m425.13,301.18c1,.06,1.99.1,2.99.18.39.03.78.13,1.17.2-.35.07-.71.18-1.06.19-1.79.05-3.59.1-5.38.09-1.06,0-1.97-.04-2.03,1.45-.02.49-.63.96-.99,1.43-.1.13-.28.19-.42.29-.06-.19-.18-.38-.17-.56.11-1.71,1.46-3.04,3.21-3.13.89-.05,1.79,0,2.69,0,0-.04,0-.08,0-.12Z"/>
  <path class="cls-1" d="m573.26,289.94c-1.8-.21-4.29-.5-6.77-.81-.23-.03-.45-.23-.67-.35.28-.09.56-.25.84-.24,1.4.05,2.81.12,4.2.24,1.59.14,3.18.34,4.76.55.53.07,1.04.26,1.56.4-.57.1-1.14.25-1.72.3-.5.04-1-.03-2.2-.08Z"/>
  <path class="cls-1" d="m290.38,403.23c1.34-.1,2.49.13,3.44,1.29.52.64,1.41.99,2.16,1.42.91.52,1.96.89,1.95,2.22-2.52-1.64-5.03-3.28-7.55-4.92Z"/>
  <path class="cls-1" d="m281.61,453.31c-2.31-1.96-4.63-3.93-6.93-5.9-.09-.08-.04-.32-.06-.49.27,0,.64-.11.79.02,1.73,1.58,3.45,3.18,5.12,4.83.44.43.71,1.04,1.06,1.57l.02-.02Z"/>
  <path class="cls-1" d="m451.45,92.05c.57,0,1.07-.04,1.56.01.64.07,1.27.22,1.91.34-.67.48-1.27,1.19-2.01,1.39-.81.22-1.8.12-2.62-.13-.67-.2-1.21-.83-1.8-1.26.62-.08,1.24-.15,1.86-.22.39-.05.79-.09,1.1-.12Z"/>
  <path class="cls-1" d="m624.12,320.02c2.5.41,4.75.75,6.99,1.14,4.32.75,8.63,1.59,12.96,2.28,4.73.75,9.48,1.36,14.22,2.07,1.58.24,3.13.63,4.71.92,4.52.83,9.04,1.68,13.57,2.45,4.33.73,8.68,1.37,13.03,2.05.3.05.69-.03.88.13.35.29.58.73.86,1.1-.42.08-.87.3-1.27.23-4.33-.76-8.66-1.55-12.98-2.35-4.52-.84-9.02-1.78-13.55-2.55-4.53-.77-9.09-1.38-13.63-2.1-1.77-.28-3.52-.71-5.28-1.04-2.84-.54-5.68-1.06-8.53-1.57-.59-.11-1.2-.14-1.8-.19-1.18-.11-2.03.11-1.7,1.62.05.25-.16.55-.25.83-.12-.24-.32-.46-.35-.71-.24-2.37-.24-2.28-2.39-2.53-1.76-.21-3.5-.65-5.24-1-.69-.14-1.37-.35-2.06-.52.68-.09,1.37-.18,1.8-.24Z"/>
  <path class="cls-1" d="m677.78,247.7c-8.1-.55-16.2-1.11-24.31-1.65-2-.13-4.01-.13-6.02-.25-4.36-.26-8.72-.57-13.09-.83-1.94-.11-3.67.09-5.18,1.71-1.58,1.71-3.99,2.02-6.14,2.68-.16.05-.38-.08-.57-.13.15-.21.25-.49.45-.62,1.37-.96,2.76-1.89,4.14-2.82.21-.14.44-.26.67-.39-.28-.09-.58-.28-.85-.24-.89.11-1.78.25-2.65.46-.68.16-1.31.5-1.99.67-1.43.36-2.35,0-2.42-.88-.1-1.2.62-2.07,1.94-2.06,1.8,0,3.61.15,5.41.28.9.06,1.79.29,2.68.34,7.81.39,15.62.77,23.43,1.12,7.31.33,14.63.61,21.94.91,2.69.11,5.37.21,8.06.35.29.02.56.34.84.52-.21.25-.38.64-.64.71-.47.12-.99.06-1.49.07-1.41,0-2.81,0-4.22,0,0,.02,0,.04,0,.06Z"/>
  <path class="cls-1" d="m660.65,242.17c-2.51,0-5.02.13-7.52-.03-5.39-.35-10.77-.84-16.16-1.28-1.79-.15-3.59-.27-5.38-.5-1.18-.15-2.36-.41-3.49-.78-.31-.1-.7-.86-.59-1.11.15-.35.92-.83,1.12-.71,3.77,2.08,7.97,1.47,11.98,1.85,4.08.39,8.21.25,12.32.29,4.81.04,9.63.02,14.44.04.29,0,.59.1.88.16-.24.13-.47.27-.72.37-.31.13-.63.23-.95.35.29.06.57.15.86.19,1.58.2,3.16.42,4.75.55,1.8.15,3.45-.02,3.93-2.25.04-.2.38-.34.58-.5.17.22.46.42.5.66.29,1.64-.44,2.71-2.14,2.83-1.69.12-3.4-.02-5.09-.03-3.11,0-6.22,0-9.33,0,0-.04,0-.07,0-.11Z"/>
  <path class="cls-1" d="m618.37,279.04c0-8.33,0-16.65,0-24.98,0-.7-.09-1.43.09-2.09.14-.52.62-.94.95-1.41.12.48.34.97.35,1.45.02,4.91.03,9.81-.01,14.72,0,.88-.12,1.78-.37,2.62-.85,2.85-.68,5.7-.11,8.56.15.77.47,1.54.48,2.31.07,8.03.1,16.05.09,24.08,0,.71-.33,2.01-.53,2.02-1.43.02-1.01-1.18-1.02-1.99-.03-8.43-.02-16.85-.02-25.28.03,0,.07,0,.1,0Z"/>
  <path class="cls-1" d="m624.29,306.77c2.86.4,5.72.8,8.57,1.2,2.97.41,5.95.8,8.91,1.24,2.96.44,5.91.94,8.86,1.41.69.11,1.38.25,2.07.35,3.75.55,7.49,1.13,11.24,1.62,5.54.72,11.09,1.37,16.64,2.05.4.05.86-.05,1.19.11.48.25.87.67,1.29,1.03-.5.12-1.03.4-1.51.34-3.76-.5-7.52-1.05-11.27-1.62-1.97-.3-3.93-.71-5.89-1.02-5.02-.8-10.04-1.67-15.08-2.35-5.64-.76-11.31-1.28-16.96-2.04-2.76-.37-5.48-1.04-8.2-1.6-.17-.04-.28-.36-.42-.55.19-.05.38-.11.56-.16Z"/>
  <path class="cls-1" d="m683.39,281.14c0,9.14,0,18.29,0,27.43,0,.8.03,1.61-.02,2.41-.02.26-.23.51-.35.76-.12-.26-.34-.52-.35-.79-.05-.9-.02-1.81-.02-2.71,0-18.19-.02-36.37-.02-54.56,0-1.1.09-2.2.18-3.31.02-.29.16-.56.24-.85.08.29.2.57.22.87.08,1,.16,2,.16,3.01.01,9.24,0,18.49,0,27.73-.02,0-.03,0-.05,0Z"/>
  <path class="cls-1" d="m699.8,275.72c0-42.71,0-85.43,0-128.14,0-2.71.04-5.43.07-8.14,0-.3.08-.59.12-.88.06.28.16.56.16.84.05,2.71.12,5.43.12,8.14,0,29.95,0,59.9.01,89.85.02,37.49.04,74.98.12,112.46.02,8.84.37,17.67.44,26.5.06,7.13-.03,14.27-.15,21.4-.07,4.42-.31,8.83-.49,13.24-.02.6-.13,1.19-.2,1.79-.06-.56-.16-1.12-.17-1.68-.04-10.95-.09-21.91-.09-32.86-.01-34.17,0-68.34,0-102.51h.05Z"/>
  <path class="cls-1" d="m717.7,303.27c0,30.25,0,60.5-.01,90.75,0,.89-.16,1.77-.24,2.66-.13-.93-.38-1.86-.38-2.79-.04-55.87-.05-111.75-.08-167.62,0-4.61-.13-9.23-.19-13.84,0-.6.05-1.2.13-1.79.02-.16.22-.3.34-.45.14.18.4.35.41.54.06.9.05,1.81.05,2.71-.01,13.46-.03,26.93-.04,40.39,0,16.48,0,32.96,0,49.44h0Z"/>
  <path class="cls-1" d="m714.06,307.65c0,28.14,0,56.28,0,84.42,0,2.51-.09,5.02-.15,7.53,0,.37-.06.74-.1,1.11-.03-.4-.07-.8-.08-1.2-.07-18.99-.18-37.99-.19-56.98-.02-37.89.01-75.78.02-113.67,0-4.22-.07-8.44-.08-12.66,0-.38.16-.76.25-1.14.12.41.35.82.36,1.23.05,2.01.05,4.02.05,6.03,0,28.44,0,56.88,0,85.33-.03,0-.06,0-.09,0Z"/>
  <path class="cls-1" d="m717.74,174.96c0,9.74,0,19.49,0,29.23,0,.6,0,1.21-.03,1.81-.02.27-.16.53-.24.79-.18-.22-.47-.41-.52-.65-.12-.69-.19-1.39-.18-2.09.12-18.08.25-36.16.39-54.24.01-1.71.09-3.41.15-5.12.01-.4.06-.8.1-1.2.04.44.12.89.12,1.33.07,8.94.13,17.88.18,26.82,0,1.11,0,2.21,0,3.32h.03Z"/>
  <path class="cls-1" d="m708.66,384.22c0,6.41,0,12.83,0,19.24,0,.49-.12.98-.18,1.47-.06-.46-.18-.91-.18-1.37-.02-10.53-.03-21.06-.03-31.6,0-2.41.02-4.81.04-7.22,0-.4.07-.79.11-1.19.06.37.15.74.16,1.11.05,2.71.1,5.42.11,8.12.02,3.81,0,7.61,0,11.42-.01,0-.02,0-.03,0Z"/>
  <path class="cls-1" d="m713.67,194.27c0-3.71,0-7.43,0-11.14,0-.39.09-.79.14-1.18.05.39.14.77.14,1.16.06,7.33.12,14.65.17,21.98,0,.4,0,.8-.05,1.2-.02.18-.17.35-.26.52-.09-.17-.26-.33-.27-.5-.04-.8-.05-1.6-.05-2.41,0-3.21,0-6.42,0-9.63.06,0,.12,0,.18,0Z"/>
  <path class="cls-1" d="m709.25,170.45c0-3.4,0-6.8,0-10.2,0-.39.11-.78.16-1.17.08.36.22.72.23,1.08.02,2.5.02,5,.02,7.5,0,4.3,0,8.6-.02,12.91,0,.42-.16.84-.25,1.26-.05-.39-.14-.78-.14-1.17-.01-3.4,0-6.8,0-10.2Z"/>
  <path class="cls-1" d="m522.44,38.36c0-1.7,0-3.4,0-5.1,0-.29.11-.58.17-.87.08.27.22.55.22.82-.02,3.6-.06,7.19-.11,10.79,0,.3-.07.59-.11.89-.04-.28-.1-.56-.1-.84,0-1.9,0-3.8,0-5.7-.02,0-.05,0-.07,0Z"/>
  <path class="cls-1" d="m401.62,283.8c-2.33-.42-4.66-.83-6.99-1.25-1.08-.19-2.15-.4-3.22-.62-.27-.06-.52-.19-.78-.29.28-.09.57-.29.84-.26,2.57.3,5.13.6,7.69.99,1.15.17,2.28.53,3.42.81.29.07.56.18.84.27-.3.11-.59.27-.9.33-.29.06-.6.01-.9.02Z"/>
  <path class="cls-1" d="m512.67,301.89c-2.83-.39-5.65-.8-8.48-1.17-.69-.09-1.61-.77-1.91.57,0,.03-.46.01-.46-.02-.31-1.93-1.91-.87-2.88-1.24-.27-.1-.54-.2-.81-.3.27-.11.53-.3.8-.32.59-.05,1.21-.09,1.79,0,4.61.62,9.22,1.28,13.83,1.93.19.03.36.15.53.23-.21.11-.41.3-.62.32-.6.04-1.2.02-1.8.01Z"/>
  <line class="cls-1" x1="545.14" y1="285.98" x2="419.86" y2="269.63"/>
  <path class="cls-1" d="m292.87,235.96c-2.74,0-5.25-1.17-7.26-3.13-2.06,5.57-3.35,13.48-3.35,22.26,0,16.87,4.75,30.54,10.61,30.54s10.61-13.67,10.61-30.54c0-8.78-1.29-16.69-3.35-22.26-2.01,1.95-4.53,3.13-7.26,3.13Z"/>
  <line class="cls-1" x1="588.25" y1="322.96" x2="478.91" y2="356.11"/>
  <path class="cls-1" d="m449.29,133.77s-12.14,9.5-10.27,35.48"/>
  <path class="cls-1" d="m364.85,154.53s-5.65-.1-7.09,18.15"/>
  <path class="cls-1" d="m360.12,372.11s-2.73,27.54,25.77,36.27"/>
  <line class="cls-1" x1="356.27" y1="372.11" x2="356.27" y2="423.78"/>
  <line class="cls-1" x1="348.05" y1="375.51" x2="348.05" y2="427.18"/>
  <line class="cls-1" x1="352.16" y1="373.29" x2="352.16" y2="424.96"/>
  <line class="cls-1" x1="466.46" y1="454.9" x2="413.57" y2="428.64"/>
  <path class="cls-1" d="m310.17,167.37s-6.82,5.08-5.84,25.75"/>
  <path class="cls-1" d="m359.57,371.08s1.5-15.75,57.69-12.32"/>
  <line class="cls-1" x1="242.59" y1="375.51" x2="335.91" y2="441.18"/>
  <path class="cls-1" d="m450.06,372.59s2.02-6-19.51-10.81"/>
  <path class="cls-1" d="m305.11,343.96s-8.22,16.42,21.47,29.33c0,0,8.89,2.39,5.88,49.13"/>
  <path class="cls-1" d="m373.7,348.85s2.21,8.15-5.72,14.48"/>
  <path class="cls-1" d="m360.07,368.94s-4.74,2.43-9.07,4.61-6.9,6.46-6.9,11.2v43.81"/>
</svg>