<svg width="32" height="32" viewBox="0 0 32 32" fill="none" xmlns="http://www.w3.org/2000/svg">
<path d="M27.4721 0.875305H4.46946C2.48549 0.875305 0.875305 2.48549 0.875305 4.46946V27.4721C0.875305 29.456 2.48549 31.0662 4.46946 31.0662H27.4721C29.456 31.0662 31.0662 29.456 31.0662 27.4721V4.46946C31.0662 2.48549 29.456 0.875305 27.4721 0.875305ZM10.2201 12.3766V26.0344H5.90712V12.3766H10.2201ZM5.90712 8.40147C5.90712 7.3951 6.76972 6.62595 8.06362 6.62595C9.35751 6.62595 10.1698 7.3951 10.2201 8.40147C10.2201 9.40783 9.41502 10.2201 8.06362 10.2201C6.76972 10.2201 5.90712 9.40783 5.90712 8.40147ZM26.0344 26.0344H21.7214C21.7214 26.0344 21.7214 19.378 21.7214 18.8461C21.7214 17.4084 21.0026 15.9708 19.2055 15.942H19.148C17.4084 15.942 16.6896 17.4228 16.6896 18.8461C16.6896 19.5002 16.6896 26.0344 16.6896 26.0344H12.3766V12.3766H16.6896V14.2168C16.6896 14.2168 18.0769 12.3766 20.866 12.3766C23.7198 12.3766 26.0344 14.339 26.0344 18.3141V26.0344Z" fill="#FAFAFA"/>
</svg>
