<svg width="34" height="34" viewBox="0 0 34 34" fill="none" xmlns="http://www.w3.org/2000/svg">
<path d="M30.6849 14.79L29.2966 20.7116C28.1066 25.8258 25.7549 27.8941 21.3349 27.4691C20.6266 27.4125 19.8616 27.285 19.0399 27.0866L16.6599 26.52C10.7524 25.1175 8.92493 22.1991 10.3133 16.2775L11.7016 10.3416C11.9849 9.13747 12.3249 8.08914 12.7499 7.22497C14.4074 3.79664 17.2266 2.8758 21.9583 3.99497L24.3241 4.54747C30.2599 5.9358 32.0733 8.8683 30.6849 14.79Z" stroke="#315C66" stroke-width="2.4" stroke-linecap="round" stroke-linejoin="round"/>
<path d="M17.9067 12.0841L24.7775 13.8266M16.5183 17.5666L20.6267 18.615M21.335 27.4691C20.4567 28.0641 19.3517 28.56 18.0058 28.9991L15.7675 29.7358C10.1433 31.5491 7.18249 30.0333 5.35499 24.4091L3.54166 18.8133C1.72833 13.1891 3.22999 10.2141 8.85416 8.40081L11.0925 7.66414C11.6733 7.47998 12.2258 7.32414 12.75 7.22498C12.325 8.08914 11.985 9.13748 11.7017 10.3416L10.3133 16.2775C8.92499 22.1991 10.7525 25.1175 16.66 26.52L19.04 27.0866C19.8617 27.285 20.6267 27.4125 21.335 27.4691Z" stroke="#315C66" stroke-width="2.4" stroke-linecap="round" stroke-linejoin="round"/>
</svg>
