<svg width="25" height="22" viewBox="0 0 25 22" fill="none" xmlns="http://www.w3.org/2000/svg">
<path d="M2.00146 1.83331H3.7426C4.82331 1.83331 5.67386 2.68581 5.58381 3.66665L4.75326 12.7966C4.72083 13.1504 4.76896 13.5064 4.89459 13.8421C5.02022 14.1779 5.22062 14.4861 5.48308 14.7473C5.74554 15.0084 6.06435 15.2167 6.4193 15.359C6.77426 15.5014 7.15762 15.5746 7.54509 15.5741H18.2021C19.643 15.5741 20.9038 14.4925 21.0139 13.1816L21.5542 6.30665C21.6743 4.78498 20.4135 3.54748 18.7424 3.54748H5.82396M9.00604 7.33331H21.0139M16.2608 20.1666C16.5925 20.1666 16.9107 20.0459 17.1452 19.831C17.3798 19.6162 17.5116 19.3247 17.5116 19.0208C17.5116 18.7169 17.3798 18.4255 17.1452 18.2106C16.9107 17.9957 16.5925 17.875 16.2608 17.875C15.929 17.875 15.6109 17.9957 15.3763 18.2106C15.1417 18.4255 15.01 18.7169 15.01 19.0208C15.01 19.3247 15.1417 19.6162 15.3763 19.831C15.6109 20.0459 15.929 20.1666 16.2608 20.1666ZM8.25555 20.1666C8.58729 20.1666 8.90544 20.0459 9.14001 19.831C9.37459 19.6162 9.50637 19.3247 9.50637 19.0208C9.50637 18.7169 9.37459 18.4255 9.14001 18.2106C8.90544 17.9957 8.58729 17.875 8.25555 17.875C7.92381 17.875 7.60566 17.9957 7.37109 18.2106C7.13652 18.4255 7.00473 18.7169 7.00473 19.0208C7.00473 19.3247 7.13652 19.6162 7.37109 19.831C7.60566 20.0459 7.92381 20.1666 8.25555 20.1666Z" stroke="#FAFAFA" stroke-width="2.5" stroke-miterlimit="10" stroke-linecap="round" stroke-linejoin="round"/>
</svg>
