<svg width="34" height="34" viewBox="0 0 34 34" fill="none" xmlns="http://www.w3.org/2000/svg">
<path d="M15.583 7.08337V11.3334H12.7497C11.8997 11.3334 11.333 11.9 11.333 12.75V15.5834H7.08301V12.75C7.08301 9.63337 9.63301 7.08337 12.7497 7.08337H15.583ZM18.4163 26.9167V22.6667H21.2497C22.0997 22.6667 22.6663 22.1 22.6663 21.25V18.4167H26.9163V21.25C26.9163 24.3667 24.3663 26.9167 21.2497 26.9167H18.4163Z" stroke="#315C66" stroke-width="2.4" stroke-miterlimit="10" stroke-linecap="round" stroke-linejoin="round"/>
<path d="M21.2497 31.1667H12.7497C5.66634 31.1667 2.83301 28.3334 2.83301 21.25V12.75C2.83301 5.66671 5.66634 2.83337 12.7497 2.83337H21.2497C28.333 2.83337 31.1663 5.66671 31.1663 12.75V21.25C31.1663 28.3334 28.333 31.1667 21.2497 31.1667Z" stroke="#315C66" stroke-width="2.4" stroke-linecap="round" stroke-linejoin="round"/>
</svg>
