<svg width="30" height="30" viewBox="0 0 30 30" fill="none" xmlns="http://www.w3.org/2000/svg">
<path fill-rule="evenodd" clip-rule="evenodd" d="M27.1875 0H2.8125C1.26563 0 0 1.26563 0 2.8125V27.1875C0 28.7344 1.26563 30 2.8125 30H27.1875C28.7344 30 30 28.7344 30 27.1875V2.8125C30 1.26563 28.7344 0 27.1875 0ZM24.3777 9.18447C23.6769 9.49598 22.9328 9.69909 22.1709 9.78681C22.9637 9.31403 23.5722 8.55775 23.8628 7.65807C23.1193 8.09823 22.2938 8.42153 21.4213 8.5937C20.7159 7.84745 19.7177 7.38292 18.6115 7.38292C16.4866 7.38292 14.7658 9.10253 14.7658 11.2274C14.7658 11.5253 14.7979 11.8193 14.8638 12.1028C11.6676 11.9395 8.83347 10.4092 6.93498 8.08159C6.59354 8.66872 6.4136 9.33576 6.41345 10.015C6.41345 11.3493 7.09112 12.5285 8.12368 13.2145C7.49251 13.1962 6.90174 13.0218 6.37965 12.7361V12.7849C6.37965 14.6485 7.70621 16.2053 9.46684 16.5574C9.13636 16.647 8.79548 16.6924 8.45308 16.6925C8.20506 16.6925 7.96534 16.6682 7.72782 16.6233C8.21781 18.1508 9.63625 19.2648 11.3204 19.2952C10.0016 20.3283 8.34512 20.9435 6.54132 20.9435C6.2296 20.9435 5.92567 20.9252 5.62229 20.8897C7.32807 21.9848 9.34998 22.6171 11.5225 22.6171C18.5976 22.6171 22.4682 16.7551 22.4682 11.672C22.4682 11.5031 22.4654 11.3382 22.4571 11.1726C23.2084 10.6356 23.8618 9.95683 24.3755 9.18615L24.3777 9.18447Z" fill="#FAFAFA"/>
</svg>
