<svg width="44" height="52" viewBox="0 0 44 52" fill="none" xmlns="http://www.w3.org/2000/svg">
<path d="M41.9526 44.1216C41.9526 44.1216 41.9333 44.1414 41.9205 44.1525C37.6834 48.0463 32.0941 50.4118 25.9711 50.4118C12.7308 50.4118 2 39.3487 2 25.7037C2 12.0587 12.7308 1 25.969 1C30.5382 1 34.8245 2.29426 38.4443 4.60451C38.4636 4.61776 38.5043 4.64205 38.5236 4.6553C41.9912 6.91033 43.0135 11.6435 40.8189 15.2126C39.4044 17.5096 36.9998 18.7641 34.5437 18.7641C33.185 18.7641 31.8069 18.3776 30.5746 17.5737C28.7487 16.3633 26.5734 15.6566 24.2395 15.6566C17.7714 15.6566 12.525 21.0633 12.525 27.7334C12.525 29.3965 12.8465 30.9845 13.4423 32.4246C13.4466 32.4378 13.4594 32.4665 13.4616 32.4754C16.5756 40.3315 23.9158 45.9834 32.6449 45.9834C35.8896 45.9834 38.965 45.2104 41.6933 43.83C41.7104 43.8168 41.7254 43.8057 41.7469 43.8035C41.8262 43.777 41.9119 43.8035 41.9633 43.8764C42.0169 43.9515 42.0105 44.0553 41.9526 44.1238V44.1216Z" fill="#363638"/>
</svg>
